<svg id="svg" version="1.1" xmlns="http://www.w3.org/2000/svg" xmlns:xlink="http://www.w3.org/1999/xlink" width="400" height="258.90821835632875" viewBox="0, 0, 400,258.90821835632875"><g id="svgg"><path id="path0" d="M370.366 9.118 C 370.102 9.232,369.292 9.338,368.566 9.356 C 367.394 9.383,366.561 9.505,364.187 9.996 C 363.824 10.071,363.527 10.228,363.527 10.345 C 363.527 10.462,363.203 10.558,362.807 10.558 C 361.660 10.558,359.485 11.875,358.008 13.462 C 356.207 15.399,355.799 16.054,354.683 18.788 C 354.332 19.647,354.302 29.659,354.649 29.874 C 354.781 29.956,354.889 30.230,354.889 30.483 C 354.889 31.597,359.471 36.953,360.423 36.953 C 360.592 36.953,360.901 37.102,361.109 37.285 C 361.472 37.602,363.142 38.224,365.447 38.900 C 366.041 39.074,366.797 39.354,367.127 39.523 C 367.457 39.691,367.971 39.830,368.270 39.831 C 368.568 39.831,369.000 39.927,369.229 40.043 C 369.976 40.420,371.346 40.792,371.988 40.792 C 372.334 40.792,372.676 40.887,372.748 41.004 C 372.821 41.121,373.178 41.276,373.542 41.349 C 373.907 41.422,374.691 41.602,375.285 41.749 C 375.879 41.896,376.527 42.047,376.725 42.086 C 377.742 42.285,379.119 42.749,379.231 42.931 C 379.301 43.044,379.744 43.209,380.214 43.297 C 380.684 43.386,381.129 43.614,381.202 43.804 C 381.275 43.995,381.467 44.151,381.628 44.151 C 381.988 44.151,382.963 45.161,382.963 45.534 C 382.963 45.684,383.149 45.911,383.375 46.037 C 384.539 46.689,382.682 51.590,381.272 51.590 C 381.014 51.590,380.804 51.698,380.804 51.830 C 380.804 51.962,380.615 52.070,380.384 52.071 C 380.153 52.072,379.655 52.234,379.277 52.431 C 378.899 52.628,378.452 52.789,378.285 52.789 C 377.781 52.789,377.691 53.656,377.688 58.517 L 377.684 63.164 380.024 62.994 C 382.368 62.823,385.317 62.063,387.125 61.166 C 387.633 60.914,388.144 60.708,388.262 60.708 C 388.483 60.708,388.801 60.470,390.500 59.042 C 392.551 57.315,393.807 56.002,394.126 55.249 C 394.308 54.820,394.570 54.469,394.709 54.469 C 394.848 54.469,394.961 54.320,394.961 54.139 C 394.961 53.957,395.120 53.676,395.315 53.515 C 395.509 53.353,395.739 52.827,395.826 52.345 C 395.912 51.864,396.082 51.345,396.203 51.192 C 396.447 50.883,396.326 43.080,396.056 41.752 C 395.854 40.753,394.544 38.024,394.085 37.642 C 393.907 37.495,393.761 37.244,393.761 37.086 C 393.761 36.475,392.004 34.791,390.460 33.922 C 388.046 32.564,387.214 32.154,386.872 32.154 C 386.702 32.154,386.563 32.046,386.563 31.914 C 386.563 31.782,386.299 31.674,385.977 31.674 C 385.655 31.674,385.332 31.578,385.259 31.460 C 385.187 31.343,384.775 31.189,384.345 31.118 C 383.915 31.047,383.077 30.867,382.484 30.718 C 381.890 30.569,380.756 30.340,379.964 30.210 C 379.172 30.080,378.308 29.886,378.044 29.781 C 376.891 29.320,375.061 28.794,374.607 28.794 C 374.336 28.794,374.044 28.681,373.958 28.543 C 373.873 28.405,373.621 28.322,373.400 28.360 C 372.118 28.577,368.344 26.540,367.313 25.075 C 365.893 23.056,367.969 19.196,370.475 19.196 C 370.861 19.196,371.244 19.088,371.326 18.956 C 371.407 18.824,371.738 18.716,372.060 18.716 L 372.645 18.716 372.645 13.943 C 372.645 9.812,372.594 9.150,372.266 9.024 C 371.754 8.827,370.949 8.867,370.366 9.118 M377.773 9.051 C 377.241 9.418,377.656 19.196,378.203 19.196 C 378.451 19.196,379.081 19.466,379.604 19.796 C 380.127 20.126,380.711 20.396,380.902 20.396 C 381.369 20.396,382.245 21.544,382.411 22.374 C 382.485 22.743,382.640 23.103,382.754 23.175 C 382.869 23.246,382.969 23.648,382.977 24.069 C 383.010 25.956,384.007 27.384,384.967 26.921 C 385.477 26.675,387.513 26.491,391.874 26.296 C 394.269 26.189,395.331 25.907,395.834 25.246 C 396.255 24.691,396.240 24.077,395.801 23.908 C 395.548 23.811,395.441 23.416,395.441 22.577 C 395.441 21.921,395.333 21.317,395.201 21.236 C 395.069 21.154,394.961 20.836,394.961 20.529 C 394.961 20.222,394.800 19.662,394.603 19.284 C 394.405 18.906,394.241 18.434,394.238 18.236 C 394.235 18.038,393.908 17.391,393.513 16.797 C 393.117 16.203,392.572 15.371,392.300 14.948 C 392.029 14.525,391.599 14.112,391.344 14.032 C 391.090 13.951,390.882 13.734,390.882 13.550 C 390.882 13.365,390.639 13.086,390.342 12.930 C 390.045 12.774,389.748 12.581,389.682 12.502 C 388.618 11.225,385.040 9.896,381.164 9.338 C 380.372 9.224,379.346 9.071,378.884 8.997 C 378.422 8.924,377.922 8.948,377.773 9.051 M19.316 9.605 C 17.181 10.022,15.314 10.579,14.226 11.124 C 13.594 11.441,12.620 11.931,12.060 12.213 C 11.501 12.495,10.868 12.994,10.653 13.322 C 10.438 13.649,10.133 13.917,9.974 13.917 C 9.197 13.917,6.557 16.855,6.133 18.192 C 6.049 18.456,5.831 18.729,5.648 18.800 C 5.465 18.870,5.136 19.339,4.917 19.842 C 4.698 20.344,4.420 20.943,4.299 21.173 C 4.178 21.402,4.079 21.753,4.079 21.952 C 4.079 22.152,3.971 22.316,3.839 22.316 C 3.707 22.316,3.599 22.497,3.599 22.718 C 3.599 23.169,3.208 24.454,2.728 25.580 C 1.297 28.935,1.685 46.025,3.274 49.656 C 3.480 50.126,3.726 50.726,3.820 50.990 C 5.108 54.576,9.567 60.708,10.888 60.708 C 10.971 60.708,11.241 60.911,11.490 61.160 C 13.087 62.757,21.771 64.262,23.870 63.306 C 24.710 62.923,24.741 62.689,24.663 57.349 L 24.595 52.669 23.515 52.362 C 22.358 52.032,19.332 50.541,18.681 49.981 C 18.063 49.449,15.837 46.122,15.837 45.731 C 15.837 45.537,15.729 45.313,15.597 45.231 C 15.465 45.149,15.357 44.812,15.357 44.481 C 15.357 44.150,15.240 43.661,15.097 43.393 C 14.427 42.142,14.926 27.945,15.665 27.206 C 15.760 27.112,15.837 26.895,15.837 26.725 C 15.837 26.435,16.271 25.701,17.570 23.792 C 17.870 23.351,18.380 22.757,18.703 22.472 C 19.026 22.188,19.533 21.723,19.830 21.439 C 20.128 21.155,20.915 20.742,21.580 20.521 C 22.246 20.300,22.851 20.020,22.927 19.898 C 23.002 19.776,23.435 19.676,23.889 19.676 L 24.715 19.676 24.715 14.517 L 24.715 9.358 22.496 9.388 C 21.275 9.405,19.844 9.502,19.316 9.605 M29.994 14.602 L 29.994 19.916 30.820 19.916 C 31.274 19.916,31.703 20.010,31.774 20.125 C 31.846 20.240,32.203 20.395,32.568 20.470 C 33.228 20.606,33.657 20.881,35.131 22.118 C 35.817 22.694,36.884 24.561,38.034 27.198 C 38.430 28.104,38.455 28.118,39.434 27.961 C 39.983 27.873,42.052 27.704,44.031 27.586 C 46.011 27.467,48.212 27.302,48.923 27.217 L 50.215 27.064 50.067 25.470 C 49.887 23.537,47.904 19.350,46.505 17.951 C 46.275 17.721,45.815 17.102,45.483 16.575 C 45.150 16.048,44.634 15.489,44.335 15.333 C 44.036 15.176,43.137 14.531,42.338 13.899 C 41.539 13.267,40.592 12.677,40.235 12.587 C 39.878 12.497,39.506 12.291,39.409 12.129 C 39.312 11.967,38.908 11.718,38.512 11.575 C 38.116 11.432,36.875 10.925,35.753 10.449 C 34.255 9.812,33.219 9.542,31.854 9.434 L 29.994 9.287 29.994 14.602 M254.589 15.354 L 254.589 20.876 258.791 20.876 C 261.103 20.876,263.181 20.971,263.411 21.088 C 263.640 21.204,264.133 21.443,264.507 21.619 C 265.984 22.313,266.227 23.038,266.227 26.765 C 266.227 31.878,265.360 32.761,259.748 33.369 C 254.227 33.966,254.732 33.422,254.626 38.884 L 254.543 43.142 255.706 43.280 C 258.775 43.645,259.284 43.733,259.496 43.934 C 259.621 44.054,260.015 44.151,260.370 44.151 C 260.726 44.151,261.079 44.313,261.155 44.511 C 261.231 44.709,261.462 44.871,261.670 44.871 C 262.244 44.871,263.947 46.784,263.947 47.430 C 263.947 47.738,264.044 47.990,264.162 47.990 C 264.378 47.990,264.434 48.270,264.892 51.590 C 265.028 52.579,265.312 54.037,265.522 54.829 C 265.733 55.621,266.015 56.701,266.149 57.229 C 266.284 57.756,266.491 58.376,266.610 58.605 C 266.729 58.834,266.827 59.233,266.827 59.491 C 266.827 59.749,266.935 60.026,267.067 60.108 C 267.199 60.190,267.307 60.454,267.307 60.696 C 267.307 60.938,267.469 61.199,267.666 61.275 C 267.864 61.350,268.026 61.647,268.026 61.933 C 268.026 62.413,268.111 62.441,269.140 62.300 C 269.752 62.216,272.613 62.148,275.498 62.148 L 280.744 62.148 280.744 61.424 C 280.744 60.729,280.675 60.518,280.061 59.331 C 279.909 59.036,279.784 58.584,279.784 58.326 C 279.784 58.068,279.676 57.790,279.544 57.708 C 279.412 57.627,279.304 57.359,279.304 57.114 C 279.304 56.868,279.152 56.362,278.966 55.988 C 278.397 54.844,278.143 54.143,278.001 53.329 C 277.926 52.900,277.802 52.199,277.727 51.770 C 277.651 51.341,277.522 50.828,277.439 50.630 C 277.357 50.432,277.161 49.298,277.003 48.110 C 276.294 42.762,274.192 38.544,271.746 37.560 L 271.266 37.366 271.746 37.220 C 273.121 36.798,276.185 34.051,276.185 33.239 C 276.185 33.038,276.347 32.873,276.545 32.873 C 276.743 32.873,276.905 32.720,276.905 32.533 C 276.905 32.185,277.623 30.691,277.895 30.474 C 278.755 29.789,278.713 20.317,277.843 18.660 C 277.723 18.430,277.624 18.100,277.624 17.925 C 277.624 16.228,273.391 11.758,271.785 11.758 C 271.565 11.758,271.386 11.650,271.386 11.518 C 271.386 11.386,270.975 11.278,270.474 11.278 C 269.972 11.278,269.460 11.179,269.334 11.059 C 269.046 10.782,267.454 10.639,261.308 10.340 C 258.602 10.208,255.984 10.040,255.489 9.966 L 254.589 9.832 254.589 15.354 M73.185 10.402 C 73.185 10.620,73.077 10.798,72.945 10.798 C 72.813 10.798,72.705 11.061,72.705 11.384 C 72.705 11.706,72.597 12.036,72.466 12.118 C 72.334 12.199,72.226 12.432,72.226 12.635 C 72.226 12.839,72.076 13.345,71.894 13.761 C 71.181 15.385,70.977 16.083,71.111 16.432 C 71.188 16.633,71.146 16.797,71.018 16.797 C 70.890 16.797,70.786 17.068,70.786 17.400 C 70.786 17.981,70.710 18.199,70.103 19.373 C 69.951 19.668,69.826 20.070,69.826 20.265 C 69.826 20.461,69.610 21.006,69.346 21.476 C 69.082 21.946,68.866 22.446,68.866 22.587 C 68.866 22.838,68.320 24.189,67.886 25.012 C 67.765 25.241,67.666 25.678,67.666 25.984 C 67.666 26.289,67.577 26.641,67.468 26.767 C 67.359 26.892,67.148 27.427,67.000 27.954 C 66.218 30.732,65.860 31.851,65.580 32.394 C 65.409 32.723,65.269 33.176,65.268 33.399 C 65.268 33.622,65.159 33.872,65.027 33.953 C 64.895 34.035,64.787 34.365,64.787 34.687 C 64.787 35.009,64.679 35.273,64.547 35.273 C 64.415 35.273,64.307 35.477,64.307 35.725 C 64.307 35.974,64.146 36.487,63.949 36.865 C 63.752 37.243,63.589 37.714,63.587 37.912 C 63.586 38.110,63.438 38.552,63.260 38.895 C 63.081 39.237,62.861 39.939,62.771 40.454 C 62.627 41.283,62.339 42.050,61.632 43.488 C 61.520 43.717,61.428 44.116,61.428 44.374 C 61.428 44.632,61.320 44.909,61.188 44.991 C 61.056 45.073,60.948 45.457,60.948 45.845 C 60.948 46.233,60.863 46.551,60.760 46.551 C 60.657 46.551,60.432 47.064,60.260 47.690 C 59.929 48.898,59.791 49.286,59.213 50.631 C 59.015 51.093,58.775 51.849,58.681 52.310 C 58.523 53.082,58.181 54.304,57.877 55.189 C 57.809 55.387,57.771 55.669,57.794 55.817 C 57.816 55.964,57.671 56.220,57.472 56.386 C 57.272 56.552,57.109 56.998,57.109 57.378 C 57.109 57.758,57.001 58.068,56.869 58.068 C 56.737 58.068,56.629 58.332,56.629 58.654 C 56.629 58.976,56.521 59.307,56.389 59.388 C 56.257 59.470,56.149 60.124,56.149 60.842 L 56.149 62.148 62.730 62.148 C 69.866 62.148,70.066 62.111,70.066 60.825 C 70.066 60.512,70.161 60.197,70.278 60.125 C 70.394 60.054,70.565 59.291,70.657 58.432 C 70.749 57.572,70.923 56.869,71.045 56.869 C 71.166 56.869,71.266 56.597,71.266 56.265 C 71.266 55.934,71.363 55.475,71.482 55.246 C 71.601 55.017,71.831 54.343,71.993 53.749 C 72.155 53.155,72.436 52.329,72.617 51.913 C 72.797 51.497,72.945 50.937,72.945 50.668 C 72.945 50.399,73.053 50.112,73.185 50.030 C 73.317 49.948,73.425 49.624,73.425 49.310 C 73.425 48.996,73.533 48.672,73.665 48.590 C 73.797 48.509,73.905 48.192,73.905 47.886 C 73.905 47.581,74.080 46.858,74.294 46.281 C 74.508 45.703,74.821 44.529,74.989 43.671 C 75.158 42.813,75.522 41.519,75.800 40.795 C 76.078 40.071,76.305 39.287,76.305 39.052 C 76.305 38.818,76.399 38.438,76.515 38.209 C 76.865 37.516,77.265 36.110,77.265 35.570 C 77.265 35.290,77.373 34.995,77.504 34.913 C 77.636 34.831,77.744 34.554,77.744 34.296 C 77.744 34.038,77.840 33.639,77.956 33.410 C 78.197 32.935,78.656 31.156,78.992 29.394 C 79.118 28.734,79.321 28.092,79.443 27.966 C 79.564 27.841,79.664 27.404,79.664 26.995 C 79.664 26.585,79.763 26.148,79.884 26.023 C 80.004 25.897,80.152 25.525,80.211 25.195 C 80.280 24.812,80.330 24.965,80.351 25.618 C 80.369 26.181,80.482 26.829,80.602 27.058 C 80.721 27.287,80.985 28.176,81.187 29.034 C 81.630 30.914,82.594 33.682,82.843 33.793 C 82.942 33.837,83.023 34.323,83.022 34.873 C 83.021 35.800,83.517 37.711,84.012 38.689 C 84.128 38.918,84.223 39.330,84.223 39.605 C 84.223 39.879,84.329 40.302,84.459 40.544 C 84.666 40.932,84.574 41.000,83.679 41.115 C 79.363 41.670,79.092 41.776,78.852 43.017 C 78.633 44.144,77.980 46.364,77.725 46.847 C 77.604 47.077,77.504 47.475,77.504 47.733 C 77.504 47.991,77.397 48.269,77.265 48.350 C 77.133 48.432,77.025 49.032,77.025 49.684 L 77.025 50.870 82.004 50.894 C 87.650 50.921,88.150 50.996,88.258 51.839 C 88.347 52.534,89.184 55.126,89.513 55.726 C 89.639 55.955,89.742 56.414,89.742 56.745 C 89.742 57.077,89.850 57.349,89.982 57.349 C 90.114 57.349,90.222 57.720,90.222 58.174 C 90.222 58.628,90.330 59.067,90.462 59.148 C 90.594 59.230,90.702 59.554,90.702 59.868 C 90.702 60.182,90.810 60.506,90.942 60.588 C 91.074 60.669,91.182 61.054,91.182 61.442 L 91.182 62.148 98.020 62.148 L 104.859 62.148 104.859 60.954 C 104.859 59.908,104.519 58.831,103.628 57.052 C 103.513 56.823,103.419 56.475,103.419 56.280 C 103.419 55.794,101.594 50.497,101.012 49.294 C 100.752 48.758,100.540 48.083,100.540 47.795 C 100.540 47.506,100.432 47.271,100.300 47.271 C 100.168 47.271,100.060 47.007,100.060 46.685 C 100.060 46.363,99.952 46.032,99.820 45.951 C 99.688 45.869,99.580 45.605,99.580 45.364 C 99.580 45.123,99.419 44.617,99.222 44.239 C 99.024 43.861,98.863 43.369,98.862 43.145 C 98.860 42.656,97.672 39.326,97.384 39.004 C 97.272 38.879,97.181 38.528,97.181 38.224 C 97.181 37.921,97.073 37.672,96.941 37.672 C 96.809 37.672,96.701 37.349,96.701 36.953 C 96.701 36.557,96.593 36.233,96.461 36.233 C 96.329 36.233,96.219 36.044,96.217 35.813 C 96.214 35.372,95.654 33.642,95.285 32.930 C 95.166 32.701,94.874 31.866,94.636 31.074 C 94.397 30.282,94.117 29.531,94.012 29.406 C 93.907 29.281,93.821 28.876,93.821 28.506 C 93.821 28.137,93.713 27.834,93.581 27.834 C 93.449 27.834,93.341 27.571,93.341 27.249 C 93.341 26.927,93.233 26.596,93.101 26.515 C 92.969 26.433,92.861 26.155,92.861 25.897 C 92.861 25.471,92.680 25.016,92.104 23.995 C 91.632 23.160,91.352 22.350,91.053 20.957 C 90.878 20.143,90.566 19.150,90.359 18.749 C 90.152 18.348,89.982 17.754,89.982 17.428 C 89.982 17.103,89.901 16.801,89.802 16.757 C 89.640 16.684,89.416 16.123,88.094 12.478 C 87.879 11.884,87.621 11.362,87.522 11.318 C 87.424 11.274,87.343 11.031,87.343 10.778 C 87.343 10.339,87.108 10.318,82.244 10.316 C 79.439 10.316,76.254 10.246,75.165 10.161 C 73.424 10.025,73.185 10.054,73.185 10.402 M111.578 36.233 L 111.578 62.148 117.457 62.148 L 123.335 62.148 123.335 36.233 L 123.335 10.318 117.457 10.318 L 111.578 10.318 111.578 36.233 M151.890 36.233 L 151.890 62.148 157.768 62.148 L 163.647 62.148 163.647 36.233 L 163.647 10.318 157.768 10.318 L 151.890 10.318 151.890 36.233 M193.161 36.233 L 193.161 62.148 199.160 62.148 L 205.159 62.148 205.159 36.388 L 205.159 10.628 203.323 10.473 C 202.313 10.388,199.614 10.318,197.324 10.318 L 193.161 10.318 193.161 36.233 M210.438 15.357 L 210.438 20.396 220.756 20.396 L 231.074 20.396 231.074 15.357 L 231.074 10.318 220.756 10.318 L 210.438 10.318 210.438 15.357 M238.281 10.782 C 238.114 11.094,238.032 19.612,238.032 36.697 L 238.032 62.148 244.031 62.148 L 250.030 62.148 250.030 36.233 L 250.030 10.318 244.280 10.318 C 238.840 10.318,238.516 10.343,238.281 10.782 M289.142 28.635 C 289.142 38.710,289.214 50.371,289.301 54.550 L 289.460 62.148 295.300 62.148 L 301.140 62.148 301.140 36.388 L 301.140 10.629 299.160 10.475 C 298.071 10.390,295.372 10.320,293.161 10.319 L 289.142 10.318 289.142 28.635 M309.218 10.478 C 308.996 10.700,309.016 62.102,309.238 62.193 C 309.337 62.234,312.037 62.235,315.237 62.195 L 321.056 62.123 321.056 36.221 L 321.056 10.318 315.217 10.318 C 312.006 10.318,309.306 10.390,309.218 10.478 M326.095 15.357 L 326.095 20.396 336.413 20.396 L 346.731 20.396 346.731 15.357 L 346.731 10.318 336.413 10.318 L 326.095 10.318 326.095 15.357 M210.438 34.913 L 210.438 39.832 219.676 39.832 L 228.914 39.832 228.914 34.913 L 228.914 29.994 219.676 29.994 L 210.438 29.994 210.438 34.913 M326.095 34.913 L 326.095 39.832 335.573 39.832 L 345.051 39.832 345.051 34.913 L 345.051 29.994 335.573 29.994 L 326.095 29.994 326.095 34.913 M30.234 37.912 L 30.234 42.472 31.614 42.486 C 32.373 42.494,33.533 42.613,34.193 42.751 C 34.853 42.890,35.933 43.026,36.593 43.054 C 38.888 43.152,38.786 43.104,38.678 44.033 C 38.623 44.497,38.483 44.935,38.366 45.007 C 38.248 45.080,38.152 45.457,38.152 45.845 C 38.152 46.233,38.055 46.551,37.936 46.551 C 37.817 46.551,37.599 46.848,37.451 47.211 C 36.855 48.677,36.063 49.785,35.153 50.426 C 34.625 50.797,34.082 51.193,33.946 51.305 C 33.811 51.418,33.163 51.704,32.507 51.941 C 31.851 52.178,31.017 52.493,30.654 52.640 L 29.994 52.907 29.994 58.007 L 29.994 63.107 31.174 63.107 C 32.380 63.107,34.331 62.423,35.095 61.732 C 35.326 61.522,35.716 61.233,35.960 61.089 C 37.206 60.356,38.380 59.433,39.352 58.422 L 40.432 57.300 40.509 58.104 C 40.551 58.546,40.686 59.011,40.809 59.136 C 40.932 59.262,41.032 59.990,41.032 60.756 L 41.032 62.148 45.478 62.148 C 48.827 62.148,49.948 62.073,50.017 61.848 C 50.067 61.683,50.230 55.987,50.379 49.190 C 50.527 42.394,50.714 36.050,50.794 35.093 L 50.940 33.353 40.587 33.353 L 30.234 33.353 30.234 37.912 M357.888 44.622 C 357.493 44.728,356.116 44.827,354.829 44.843 L 352.490 44.871 352.490 46.703 C 352.490 48.477,352.584 49.016,353.382 51.830 C 354.140 54.496,354.528 55.568,355.035 56.389 C 355.643 57.373,359.028 60.708,359.419 60.708 C 359.567 60.708,359.688 60.816,359.688 60.948 C 359.688 61.080,359.882 61.188,360.120 61.188 C 360.358 61.188,360.654 61.284,360.780 61.402 C 361.786 62.350,364.540 62.867,368.581 62.867 L 372.645 62.867 372.622 58.488 C 372.594 53.355,372.525 52.985,371.557 52.761 C 367.484 51.816,366.026 50.361,365.482 46.697 C 365.347 45.788,365.117 44.924,364.970 44.778 C 364.654 44.460,358.962 44.335,357.888 44.622 M128.614 57.109 L 128.614 62.148 138.212 62.148 L 147.810 62.148 147.810 57.109 L 147.810 52.070 138.212 52.070 L 128.614 52.070 128.614 57.109 M168.926 57.109 L 168.926 62.148 178.524 62.148 L 188.122 62.148 188.122 57.109 L 188.122 52.070 178.524 52.070 L 168.926 52.070 168.926 57.109 M210.438 57.109 L 210.438 62.148 218.296 62.149 C 222.618 62.149,227.370 62.220,228.854 62.305 L 231.554 62.461 231.554 57.265 L 231.554 52.070 220.996 52.070 L 210.438 52.070 210.438 57.109 M326.098 56.809 C 326.100 59.415,326.186 61.680,326.289 61.843 C 326.432 62.067,328.966 62.153,336.844 62.202 L 347.211 62.268 347.211 57.169 L 347.211 52.070 336.653 52.070 L 326.095 52.070 326.098 56.809 M144.228 97.724 C 143.805 97.939,143.509 98.458,143.147 99.622 C 142.873 100.503,142.568 101.303,142.470 101.401 C 142.372 101.499,142.292 101.779,142.292 102.023 C 142.292 102.267,142.196 102.654,142.080 102.883 C 141.743 103.544,141.382 104.458,141.252 104.979 C 141.185 105.243,140.853 106.204,140.512 107.114 C 140.171 108.024,139.892 109.001,139.892 109.285 C 139.892 109.570,139.797 109.905,139.680 110.030 C 139.563 110.155,139.232 110.960,138.944 111.818 C 138.656 112.675,138.328 113.593,138.215 113.857 C 138.102 114.121,137.821 114.877,137.590 115.537 C 137.359 116.197,137.071 116.867,136.951 117.026 C 136.830 117.185,136.804 117.433,136.893 117.576 C 136.981 117.720,136.947 117.968,136.815 118.127 C 136.398 118.634,135.573 121.250,135.573 122.067 C 135.573 122.501,135.465 122.855,135.333 122.855 C 135.201 122.855,135.093 123.071,135.093 123.335 C 135.093 123.599,134.994 123.815,134.872 123.815 C 134.751 123.815,134.576 124.166,134.485 124.595 C 134.393 125.024,134.151 125.753,133.946 126.215 C 133.742 126.677,133.442 127.487,133.282 128.014 C 132.935 129.153,132.495 130.369,132.054 131.410 C 131.878 131.826,131.734 132.358,131.734 132.593 C 131.734 133.080,131.345 134.396,130.890 135.453 C 130.719 135.849,130.339 136.929,130.046 137.852 C 129.478 139.640,129.168 140.476,128.826 141.149 C 128.710 141.378,128.614 141.761,128.614 142.000 C 128.614 142.240,128.500 142.550,128.361 142.689 C 128.221 142.829,127.946 143.579,127.750 144.357 C 127.554 145.135,127.277 146.149,127.136 146.611 C 126.994 147.073,126.827 147.963,126.763 148.590 L 126.648 149.730 132.895 149.730 C 139.599 149.730,140.372 149.621,140.372 148.670 C 140.372 148.345,140.480 148.012,140.612 147.930 C 140.744 147.849,140.852 147.548,140.852 147.261 C 140.852 146.975,141.108 146.037,141.421 145.176 C 141.734 144.315,142.125 143.125,142.288 142.531 C 142.452 141.938,142.670 141.236,142.773 140.972 C 143.185 139.911,143.731 137.888,143.731 137.423 C 143.731 137.151,143.985 136.165,144.295 135.231 C 144.605 134.297,145.002 133.047,145.177 132.454 C 145.351 131.860,145.584 131.271,145.693 131.146 C 145.802 131.020,145.891 130.561,145.891 130.126 C 145.891 129.690,145.999 129.334,146.131 129.334 C 146.263 129.334,146.371 129.017,146.371 128.628 C 146.371 128.240,146.467 127.863,146.584 127.791 C 146.702 127.718,146.857 127.307,146.930 126.877 C 147.196 125.309,147.810 122.944,148.284 121.659 C 148.552 120.935,148.770 120.044,148.770 119.679 C 148.770 119.315,148.866 119.016,148.983 119.016 C 149.184 119.016,149.336 118.482,149.648 116.674 C 149.722 116.244,149.879 115.833,149.997 115.760 C 150.114 115.688,150.210 115.263,150.210 114.817 C 150.210 114.371,150.318 113.939,150.450 113.857 C 150.582 113.776,150.690 113.493,150.690 113.229 C 150.690 112.965,150.798 112.816,150.930 112.897 C 151.062 112.979,151.170 113.330,151.170 113.677 C 151.170 114.575,151.645 117.045,152.037 118.184 C 152.220 118.717,152.370 119.338,152.370 119.564 C 152.370 119.791,152.478 119.976,152.609 119.976 C 152.741 119.976,152.849 120.294,152.849 120.682 C 152.849 121.070,152.957 121.454,153.089 121.536 C 153.221 121.617,153.333 121.975,153.337 122.330 C 153.341 122.685,153.503 123.185,153.697 123.441 C 153.891 123.697,154.049 124.150,154.049 124.447 C 154.049 124.744,154.157 125.053,154.289 125.135 C 154.421 125.217,154.529 125.525,154.529 125.821 C 154.529 126.117,154.623 126.461,154.738 126.587 C 154.853 126.712,155.008 127.220,155.083 127.714 L 155.219 128.614 154.048 128.614 C 153.404 128.614,152.811 128.722,152.729 128.854 C 152.648 128.986,152.102 129.094,151.516 129.094 C 150.289 129.094,149.490 129.703,149.490 130.640 C 149.490 130.962,149.382 131.292,149.250 131.374 C 149.118 131.455,149.010 131.779,149.010 132.094 C 149.010 132.408,148.902 132.732,148.770 132.813 C 148.638 132.895,148.530 133.227,148.530 133.551 C 148.530 133.875,148.436 134.327,148.320 134.556 C 146.437 138.284,146.948 138.692,153.495 138.692 C 158.166 138.692,158.848 138.825,158.848 139.732 C 158.848 140.031,158.955 140.382,159.085 140.512 C 159.215 140.642,159.432 141.333,159.567 142.048 C 159.703 142.762,159.915 143.409,160.040 143.486 C 160.164 143.563,160.259 143.839,160.251 144.099 C 160.237 144.563,160.632 145.849,161.040 146.667 C 161.154 146.897,161.248 147.295,161.248 147.553 C 161.248 147.811,161.356 148.089,161.488 148.170 C 161.620 148.252,161.728 148.636,161.728 149.024 L 161.728 149.730 168.686 149.730 L 175.645 149.730 175.645 148.816 C 175.645 148.313,175.486 147.693,175.293 147.436 C 175.099 147.180,174.937 146.717,174.933 146.407 C 174.928 146.097,174.778 145.503,174.598 145.087 C 174.418 144.671,174.083 143.845,173.853 143.251 C 173.624 142.657,173.339 141.984,173.221 141.755 C 173.102 141.526,173.005 141.127,173.005 140.869 C 173.005 140.611,172.897 140.334,172.765 140.252 C 172.633 140.170,172.525 139.846,172.525 139.532 C 172.525 139.218,172.430 138.901,172.313 138.829 C 172.196 138.757,172.025 138.297,171.933 137.807 C 171.841 137.318,171.621 136.710,171.444 136.457 C 171.267 136.205,171.175 135.859,171.240 135.690 C 171.305 135.520,171.243 135.310,171.102 135.223 C 170.961 135.136,170.846 134.898,170.846 134.695 C 170.846 134.492,170.699 133.985,170.520 133.570 C 169.797 131.895,169.646 131.451,169.646 131.003 C 169.646 130.745,169.538 130.534,169.406 130.534 C 169.274 130.534,169.166 130.321,169.166 130.060 C 169.166 129.800,168.960 129.125,168.708 128.561 C 168.457 127.996,167.901 126.401,167.474 125.015 C 167.047 123.629,166.605 122.393,166.492 122.268 C 166.379 122.142,166.287 121.798,166.287 121.502 C 166.287 121.206,166.179 120.897,166.047 120.816 C 165.915 120.734,165.807 120.404,165.807 120.082 C 165.807 119.760,165.699 119.496,165.567 119.496 C 165.435 119.496,165.327 119.280,165.327 119.016 C 165.327 118.752,165.219 118.536,165.087 118.536 C 164.955 118.536,164.847 118.346,164.847 118.113 C 164.847 117.880,164.622 117.097,164.346 116.373 C 164.071 115.649,163.742 114.625,163.616 114.097 C 163.407 113.222,162.254 109.986,161.735 108.818 C 161.291 107.818,160.472 105.433,160.355 104.799 C 160.288 104.436,160.138 104.139,160.021 104.139 C 159.904 104.139,159.808 103.920,159.808 103.653 C 159.808 103.125,158.586 99.296,158.355 99.100 C 158.277 99.034,158.150 98.808,158.073 98.598 C 157.896 98.117,155.474 97.904,150.150 97.902 C 147.791 97.901,146.371 97.810,146.371 97.660 C 146.371 97.325,144.930 97.367,144.228 97.724 M199.220 97.580 L 198.680 97.694 198.680 103.062 L 198.680 108.430 203.299 108.504 C 209.272 108.600,210.024 109.039,210.359 112.628 C 210.734 116.640,209.856 119.736,208.345 119.736 C 208.176 119.736,208.038 119.831,208.038 119.948 C 208.038 120.242,207.145 120.442,204.079 120.832 C 199.759 121.382,199.432 121.448,199.109 121.836 C 198.550 122.510,198.523 130.774,199.081 130.773 C 199.322 130.773,200.222 130.930,201.080 131.123 C 201.938 131.316,203.128 131.536,203.724 131.610 C 204.479 131.705,205.191 132.035,206.064 132.696 C 206.754 133.219,207.324 133.567,207.332 133.470 C 207.373 132.906,208.267 135.738,208.525 137.253 C 208.693 138.242,208.923 139.155,209.035 139.280 C 209.147 139.406,209.238 139.915,209.238 140.412 C 209.238 140.908,209.390 141.778,209.577 142.343 C 209.763 142.909,209.990 143.857,210.081 144.451 C 210.234 145.445,210.628 146.584,211.178 147.627 C 211.299 147.856,211.398 148.207,211.398 148.407 C 211.398 148.607,211.493 148.770,211.610 148.770 C 211.726 148.770,211.878 148.986,211.947 149.250 C 212.069 149.715,212.274 149.730,218.367 149.730 L 224.662 149.730 224.523 148.386 C 224.447 147.646,224.216 146.854,224.009 146.626 C 223.803 146.398,223.707 146.139,223.795 146.051 C 223.948 145.898,223.749 145.366,223.006 143.934 C 222.824 143.584,222.675 143.077,222.675 142.809 C 222.675 142.540,222.567 142.253,222.436 142.172 C 222.304 142.090,222.196 141.658,222.196 141.212 C 222.196 140.765,222.099 140.341,221.981 140.268 C 221.863 140.195,221.706 139.729,221.633 139.234 C 221.560 138.738,221.396 137.792,221.269 137.133 C 221.142 136.473,220.860 134.912,220.642 133.664 C 220.291 131.647,219.824 130.150,219.010 128.432 C 218.869 128.134,218.076 127.240,217.248 126.445 L 215.742 125.000 216.676 124.347 C 217.189 123.989,218.061 123.382,218.613 122.998 C 219.213 122.582,219.793 121.906,220.056 121.319 C 220.298 120.778,220.770 120.044,221.106 119.687 C 221.441 119.329,221.716 118.892,221.716 118.715 C 221.716 118.537,221.813 118.290,221.931 118.164 C 222.714 117.336,222.714 107.020,221.931 106.191 C 221.813 106.065,221.716 105.774,221.716 105.544 C 221.716 103.320,217.006 99.100,214.524 99.100 C 214.140 99.100,213.759 98.992,213.677 98.860 C 213.596 98.728,213.055 98.620,212.475 98.620 C 211.895 98.620,211.172 98.513,210.869 98.381 C 210.566 98.250,208.428 98.034,206.119 97.902 C 203.809 97.769,201.434 97.617,200.840 97.564 C 200.246 97.510,199.517 97.518,199.220 97.580 M182.124 123.815 L 182.124 149.730 188.122 149.730 L 194.121 149.730 194.121 123.815 L 194.121 97.900 188.122 97.900 L 182.124 97.900 182.124 123.815 M231.314 123.815 L 231.314 149.730 237.193 149.730 L 243.071 149.730 243.072 135.153 C 243.072 127.136,243.143 115.474,243.231 109.238 L 243.390 97.900 237.352 97.900 L 231.314 97.900 231.314 123.815 M248.350 102.819 L 248.350 107.738 258.548 107.738 L 268.746 107.738 268.746 102.819 L 268.746 97.900 258.548 97.900 L 248.350 97.900 248.350 102.819 M248.350 122.376 L 248.350 127.415 257.554 127.415 L 266.757 127.415 266.910 125.795 C 266.994 124.904,267.064 122.636,267.065 120.756 L 267.067 117.337 257.708 117.337 L 248.350 117.337 248.350 122.376 M248.350 144.811 L 248.350 149.730 258.944 149.730 L 269.538 149.730 269.382 147.534 C 269.296 146.326,269.226 144.112,269.226 142.615 L 269.226 139.892 258.788 139.892 L 248.350 139.892 248.350 144.811 M213.015 185.481 C 212.531 185.861,212.358 186.211,212.358 186.806 C 212.358 187.250,212.271 187.668,212.165 187.733 C 212.059 187.798,211.822 188.406,211.638 189.082 C 211.453 189.759,211.216 190.366,211.110 190.431 C 211.004 190.497,210.918 190.761,210.918 191.019 C 210.918 191.277,210.813 191.676,210.685 191.905 C 210.558 192.134,210.293 192.807,210.098 193.401 C 209.903 193.995,209.512 195.075,209.230 195.801 C 208.948 196.527,208.560 197.714,208.367 198.440 C 208.175 199.166,207.952 199.922,207.872 200.120 C 207.792 200.318,207.685 200.696,207.635 200.960 C 207.586 201.224,207.440 201.476,207.312 201.520 C 207.183 201.564,207.079 201.793,207.079 202.030 C 207.079 202.505,206.294 204.593,205.611 205.936 C 205.494 206.165,205.399 206.617,205.399 206.941 C 205.399 207.265,205.291 207.597,205.159 207.678 C 205.027 207.760,204.919 208.090,204.919 208.412 C 204.919 208.735,204.811 208.998,204.679 208.998 C 204.547 208.998,204.438 209.187,204.436 209.418 C 204.432 210.020,203.582 212.648,203.008 213.836 C 202.739 214.392,202.519 215.047,202.519 215.292 C 202.519 215.536,202.304 216.159,202.040 216.677 C 201.776 217.194,201.560 217.831,201.560 218.093 C 201.560 218.354,201.452 218.635,201.320 218.716 C 201.188 218.798,201.080 219.062,201.080 219.303 C 201.080 219.544,200.918 220.050,200.721 220.428 C 200.524 220.806,200.362 221.301,200.361 221.527 C 200.359 222.168,199.541 224.577,198.892 225.852 C 198.776 226.081,198.680 226.540,198.680 226.871 C 198.680 227.203,198.572 227.475,198.440 227.475 C 198.308 227.475,198.200 227.738,198.200 228.060 C 198.200 228.382,198.092 228.713,197.960 228.794 C 197.828 228.876,197.720 229.200,197.720 229.514 C 197.720 229.828,197.612 230.152,197.481 230.234 C 197.349 230.316,197.241 230.575,197.241 230.811 C 197.241 231.047,197.078 231.566,196.880 231.964 C 196.459 232.807,196.043 234.549,195.873 236.184 L 195.753 237.335 202.213 237.264 C 209.217 237.187,209.032 237.223,209.661 235.802 C 209.824 235.432,209.958 234.909,209.958 234.639 C 209.958 234.368,210.108 233.861,210.292 233.510 C 210.748 232.638,212.372 227.233,212.364 226.610 C 212.357 226.059,212.701 224.880,213.198 223.755 C 213.372 223.359,213.626 222.603,213.761 222.076 C 213.897 221.548,214.187 220.576,214.407 219.916 C 214.627 219.256,214.857 218.284,214.920 217.756 C 214.982 217.229,215.232 216.357,215.476 215.819 C 215.720 215.281,216.026 214.309,216.155 213.659 C 216.581 211.519,217.027 209.958,217.213 209.958 C 217.314 209.958,217.397 209.640,217.397 209.252 C 217.397 208.864,217.504 208.480,217.636 208.398 C 217.768 208.317,217.876 207.985,217.876 207.661 C 217.876 207.337,217.974 206.885,218.093 206.655 C 218.212 206.426,218.439 205.753,218.598 205.159 C 218.756 204.565,218.983 203.831,219.101 203.528 C 219.219 203.225,219.320 202.685,219.324 202.328 C 219.331 201.716,219.920 200.636,220.126 200.857 C 220.178 200.914,220.399 202.091,220.616 203.475 C 220.833 204.858,221.115 206.094,221.243 206.222 C 221.371 206.350,221.476 206.703,221.476 207.007 C 221.476 207.310,221.584 207.558,221.716 207.558 C 221.848 207.558,221.956 207.876,221.956 208.264 C 221.956 208.652,222.064 209.037,222.196 209.118 C 222.328 209.200,222.436 209.517,222.436 209.822 C 222.436 210.128,222.705 210.989,223.035 211.735 C 223.365 212.481,223.635 213.282,223.635 213.516 C 223.635 213.750,223.734 214.044,223.855 214.169 C 225.103 215.463,224.051 216.379,221.116 216.555 C 219.286 216.665,218.596 217.128,218.596 218.249 C 218.596 218.556,218.488 218.875,218.356 218.956 C 218.224 219.038,218.116 219.362,218.116 219.676 C 218.116 219.990,218.008 220.314,217.876 220.396 C 217.744 220.477,217.636 220.809,217.636 221.133 C 217.636 221.457,217.542 221.910,217.426 222.139 C 216.987 223.008,216.677 224.305,216.677 225.272 L 216.677 226.275 222.316 226.275 L 227.954 226.275 227.954 226.890 C 227.954 227.228,228.123 228.064,228.329 228.749 C 228.535 229.434,228.824 230.426,228.971 230.954 C 229.119 231.482,229.382 232.084,229.557 232.292 C 229.731 232.501,229.874 232.925,229.874 233.235 C 229.874 233.822,230.260 235.210,230.623 235.930 C 230.739 236.159,230.834 236.564,230.834 236.829 C 230.834 237.302,230.978 237.313,237.705 237.313 L 244.577 237.313 244.452 235.753 C 244.383 234.895,244.150 233.923,243.933 233.593 C 243.717 233.263,243.603 232.993,243.679 232.993 C 243.756 232.993,243.662 232.696,243.471 232.334 C 243.280 231.971,242.876 230.864,242.574 229.874 C 242.272 228.884,241.937 227.972,241.828 227.846 C 241.720 227.721,241.632 227.423,241.632 227.183 C 241.632 226.944,241.536 226.561,241.420 226.331 C 241.197 225.893,240.837 225.040,240.536 224.235 C 240.437 223.971,240.380 223.612,240.409 223.438 C 240.438 223.263,240.361 222.993,240.240 222.838 C 240.118 222.682,239.942 222.239,239.850 221.852 C 239.757 221.465,239.472 220.716,239.217 220.187 C 238.961 219.658,238.752 219.029,238.752 218.788 C 238.752 218.547,238.627 218.108,238.475 217.813 C 238.005 216.903,237.885 216.596,237.540 215.417 C 237.357 214.790,237.132 214.277,237.039 214.277 C 236.947 214.277,236.801 213.926,236.715 213.497 C 236.491 212.376,235.885 210.388,235.620 209.901 C 235.495 209.672,235.393 209.267,235.393 209.001 C 235.393 208.736,235.285 208.518,235.153 208.518 C 235.021 208.518,234.913 208.255,234.913 207.933 C 234.913 207.610,234.805 207.280,234.673 207.199 C 234.541 207.117,234.433 206.841,234.433 206.585 C 234.433 206.328,234.325 206.119,234.193 206.119 C 234.061 206.119,233.953 205.847,233.953 205.516 C 233.953 205.184,233.854 204.725,233.733 204.496 C 233.292 203.660,232.753 202.320,232.753 202.060 C 232.753 201.913,232.659 201.606,232.543 201.376 C 232.427 201.147,232.038 200.042,231.679 198.920 C 230.761 196.057,230.567 195.499,230.326 195.024 C 230.209 194.795,230.114 194.453,230.114 194.264 C 230.114 194.075,229.962 193.614,229.776 193.241 C 229.254 192.191,228.996 191.483,228.564 189.922 C 228.345 189.130,228.065 188.295,227.940 188.066 C 227.816 187.836,227.714 187.484,227.714 187.283 C 227.714 186.979,227.421 186.306,227.035 185.723 C 226.991 185.657,224.400 185.532,221.276 185.445 C 218.153 185.359,215.164 185.215,214.635 185.126 C 213.855 184.994,213.548 185.062,213.015 185.481 M103.659 211.398 L 103.659 237.313 109.658 237.313 L 115.657 237.313 115.657 211.398 L 115.657 185.483 109.658 185.483 L 103.659 185.483 103.659 211.398 M120.696 190.762 C 120.696 194.824,120.765 196.041,120.996 196.043 C 127.032 196.079,133.413 200.331,133.413 204.316 C 133.413 204.595,133.511 204.926,133.630 205.051 C 134.417 205.879,134.850 219.953,134.102 220.415 C 133.987 220.486,133.893 220.792,133.893 221.094 C 133.893 221.397,133.623 222.152,133.293 222.772 C 132.963 223.393,132.693 224.044,132.693 224.220 C 132.693 224.395,132.504 224.608,132.274 224.693 C 131.457 224.992,130.534 225.584,130.534 225.808 C 130.534 225.933,130.324 226.035,130.068 226.035 C 129.812 226.035,129.545 226.128,129.474 226.243 C 129.309 226.509,127.636 226.763,121.956 227.382 L 120.696 227.519 120.696 232.656 L 120.696 237.792 121.551 237.792 C 122.022 237.792,122.595 237.692,122.825 237.569 C 123.055 237.446,124.406 237.314,125.827 237.277 C 127.247 237.240,128.457 237.134,128.514 237.041 C 128.571 236.949,129.454 236.801,130.476 236.712 C 135.746 236.253,139.151 234.227,142.197 229.740 C 142.996 228.562,145.411 223.564,145.411 223.088 C 145.411 222.877,145.508 222.644,145.627 222.570 C 147.163 221.621,148.049 203.622,146.631 202.203 C 146.488 202.061,146.371 201.694,146.371 201.388 C 146.371 201.083,146.272 200.646,146.152 200.417 C 146.031 200.187,145.647 199.406,145.298 198.680 C 143.567 195.082,141.163 192.024,138.524 190.063 C 137.627 189.396,136.762 188.741,136.603 188.606 C 136.443 188.472,136.150 188.362,135.951 188.362 C 135.752 188.362,135.181 188.185,134.681 187.969 C 132.877 187.188,131.141 186.597,128.734 185.946 C 127.488 185.608,126.234 185.490,123.875 185.487 L 120.696 185.483 120.696 190.762 M153.809 211.398 L 153.809 237.313 159.808 237.313 L 165.807 237.313 165.807 211.398 L 165.807 185.483 159.808 185.483 L 153.809 185.483 153.809 211.398 M171.086 190.522 L 171.086 195.561 181.404 195.561 L 191.722 195.561 191.722 190.522 L 191.722 185.483 181.404 185.483 L 171.086 185.483 171.086 190.522 M251.230 211.398 L 251.230 237.313 257.229 237.313 L 263.227 237.313 263.227 211.398 L 263.227 185.483 257.229 185.483 L 251.230 185.483 251.230 211.398 M268.266 190.745 L 268.266 196.006 269.646 196.143 C 274.455 196.620,277.278 198.213,280.150 202.069 C 281.349 203.680,282.157 211.632,281.706 217.397 C 281.567 219.178,281.440 220.933,281.424 221.296 C 281.408 221.659,281.323 221.956,281.235 221.956 C 281.148 221.956,280.895 222.366,280.673 222.868 C 279.598 225.306,277.253 226.544,272.825 227.012 C 271.704 227.131,270.219 227.294,269.526 227.374 L 268.266 227.521 268.268 231.037 C 268.269 232.971,268.340 235.292,268.425 236.194 L 268.580 237.836 269.563 237.682 C 270.104 237.598,271.680 237.428,273.065 237.305 C 274.451 237.182,276.395 236.969,277.385 236.834 C 278.374 236.698,279.454 236.584,279.784 236.581 C 280.114 236.578,280.654 236.460,280.984 236.319 C 281.314 236.178,281.908 235.921,282.304 235.748 C 282.699 235.575,283.299 235.373,283.635 235.301 C 284.926 235.021,288.902 231.466,288.902 230.591 C 288.902 230.461,289.010 230.354,289.142 230.354 C 289.274 230.354,289.382 230.258,289.382 230.141 C 289.382 230.024,289.814 229.282,290.342 228.491 C 290.870 227.701,291.302 226.931,291.302 226.780 C 291.302 226.629,291.553 226.102,291.859 225.610 C 292.527 224.537,292.742 224.026,292.988 222.915 C 293.160 222.140,293.496 221.105,293.961 219.916 C 294.827 217.701,294.812 203.055,293.943 202.185 C 293.810 202.052,293.701 201.641,293.701 201.272 C 293.701 200.902,293.620 200.599,293.521 200.598 C 293.353 200.596,292.414 197.893,292.481 197.604 C 292.498 197.531,292.232 197.176,291.891 196.816 C 291.549 196.456,291.066 195.783,290.817 195.321 C 290.569 194.859,289.955 194.038,289.454 193.496 C 288.953 192.954,288.423 192.306,288.277 192.056 C 287.962 191.516,285.295 189.502,284.103 188.904 C 283.641 188.672,283.227 188.401,283.183 188.302 C 283.139 188.203,282.903 188.122,282.658 188.122 C 282.412 188.122,282.145 188.014,282.064 187.882 C 281.982 187.750,281.652 187.642,281.330 187.642 C 281.007 187.642,280.744 187.534,280.744 187.403 C 280.744 187.271,280.526 187.163,280.261 187.163 C 279.995 187.163,279.590 187.064,279.361 186.944 C 277.615 186.028,274.424 185.483,270.800 185.483 L 268.266 185.483 268.266 190.745 M171.086 209.958 L 171.086 214.997 180.324 214.997 L 189.562 214.997 189.562 209.958 L 189.562 204.919 180.324 204.919 L 171.086 204.919 171.086 209.958 M171.086 232.394 L 171.086 237.313 181.524 237.313 L 191.962 237.313 191.962 232.394 L 191.962 227.475 181.524 227.475 L 171.086 227.475 171.086 232.394 " stroke="none" fill="#8c0404" fill-rule="evenodd"></path><path id="path1" d="" stroke="none" fill="#900404" fill-rule="evenodd"></path><path id="path2" d="" stroke="none" fill="#900404" fill-rule="evenodd"></path><path id="path3" d="" stroke="none" fill="#900404" fill-rule="evenodd"></path><path id="path4" d="" stroke="none" fill="#900404" fill-rule="evenodd"></path></g></svg>