<svg id="svg" version="1.1" xmlns="http://www.w3.org/2000/svg" xmlns:xlink="http://www.w3.org/1999/xlink" width="400" height="258.88077858880774" viewBox="0, 0, 400,258.88077858880774"><g id="svgg"><path id="path0" d="M370.091 9.330 C 370.006 9.467,368.961 9.579,367.767 9.579 C 366.573 9.579,365.525 9.696,365.437 9.838 C 365.349 9.981,364.934 10.097,364.515 10.097 C 364.097 10.097,363.754 10.221,363.754 10.372 C 363.754 10.524,363.550 10.622,363.301 10.590 C 362.661 10.509,361.424 10.885,361.424 11.161 C 361.424 11.288,361.191 11.392,360.906 11.392 C 360.621 11.392,360.388 11.481,360.388 11.589 C 360.388 11.698,359.921 12.076,359.349 12.429 C 358.664 12.853,358.360 13.201,358.457 13.453 C 358.537 13.663,358.519 13.750,358.415 13.647 C 358.174 13.406,356.993 14.500,357.175 14.795 C 357.251 14.917,357.130 15.016,356.908 15.016 C 356.686 15.016,356.505 15.191,356.505 15.405 C 356.505 15.618,356.388 15.793,356.246 15.793 C 356.104 15.793,355.987 16.026,355.987 16.311 C 355.987 16.595,355.871 16.828,355.728 16.828 C 355.586 16.828,355.469 17.061,355.469 17.346 C 355.469 17.631,355.353 17.864,355.210 17.864 C 355.068 17.864,354.951 18.148,354.951 18.496 C 354.951 18.844,354.835 19.200,354.693 19.288 C 354.534 19.386,354.434 21.400,354.434 24.466 C 354.434 27.532,354.534 29.546,354.693 29.644 C 354.835 29.732,354.951 30.066,354.951 30.387 C 354.951 30.708,355.184 31.220,355.469 31.526 C 355.754 31.832,355.987 32.201,355.987 32.347 C 355.987 32.624,357.057 33.914,357.898 34.653 C 358.166 34.888,358.774 35.460,359.249 35.922 C 359.724 36.385,360.281 36.764,360.488 36.764 C 360.694 36.764,360.902 36.857,360.949 36.970 C 361.109 37.351,363.505 38.328,364.671 38.488 C 365.306 38.575,365.825 38.747,365.825 38.870 C 365.825 38.993,366.117 39.094,366.472 39.094 C 366.828 39.094,367.120 39.210,367.120 39.353 C 367.120 39.495,367.586 39.612,368.155 39.612 C 368.725 39.612,369.191 39.728,369.191 39.871 C 369.191 40.013,369.540 40.129,369.968 40.129 C 370.395 40.129,370.744 40.246,370.744 40.388 C 370.744 40.531,371.210 40.647,371.780 40.647 C 372.350 40.647,372.816 40.764,372.816 40.906 C 372.816 41.049,373.158 41.165,373.577 41.165 C 373.996 41.165,374.410 41.282,374.498 41.424 C 374.586 41.566,375.050 41.683,375.528 41.683 C 376.006 41.683,376.456 41.828,376.528 42.006 C 376.627 42.250,376.728 42.234,376.934 41.942 C 377.117 41.683,377.210 41.660,377.213 41.874 C 377.215 42.050,377.683 42.269,378.252 42.360 C 378.822 42.451,379.288 42.627,379.288 42.752 C 379.288 42.876,379.514 42.977,379.791 42.977 C 380.067 42.977,380.373 43.106,380.470 43.264 C 380.596 43.468,380.705 43.458,380.845 43.230 C 380.985 43.004,381.096 43.073,381.219 43.461 C 381.315 43.765,381.571 44.013,381.788 44.013 C 382.222 44.013,383.149 45.002,383.163 45.480 C 383.168 45.646,383.299 45.825,383.454 45.876 C 384.894 46.356,382.888 51.780,381.270 51.780 C 381.034 51.780,380.841 51.896,380.841 52.039 C 380.841 52.181,380.492 52.298,380.065 52.298 C 379.638 52.298,379.288 52.414,379.288 52.557 C 379.288 52.699,379.010 52.816,378.670 52.816 C 377.828 52.816,377.706 53.610,377.748 58.800 L 377.782 62.988 380.391 62.829 C 381.826 62.742,383.120 62.550,383.267 62.403 C 383.414 62.256,383.795 62.136,384.114 62.136 C 384.433 62.136,384.766 62.019,384.854 61.877 C 384.942 61.735,385.292 61.618,385.631 61.618 C 385.970 61.618,386.320 61.502,386.408 61.359 C 386.496 61.217,386.746 61.100,386.964 61.100 C 387.182 61.100,387.592 60.838,387.875 60.518 C 388.158 60.197,388.315 60.081,388.225 60.259 C 388.134 60.437,388.183 60.583,388.334 60.583 C 388.485 60.583,388.608 60.466,388.608 60.324 C 388.608 60.181,388.729 60.065,388.876 60.065 C 389.023 60.065,389.551 59.657,390.050 59.159 C 390.548 58.660,391.064 58.252,391.197 58.252 C 391.422 58.252,392.091 57.610,393.446 56.091 C 393.757 55.742,393.942 55.387,393.856 55.301 C 393.770 55.216,393.843 55.146,394.017 55.146 C 394.192 55.146,394.262 55.028,394.174 54.885 C 394.085 54.742,394.195 54.554,394.417 54.469 C 394.640 54.383,394.822 54.151,394.822 53.953 C 394.822 53.755,394.909 53.591,395.016 53.590 C 395.306 53.587,395.858 52.281,395.858 51.599 C 395.858 51.271,395.974 51.003,396.117 51.003 C 396.278 51.003,396.375 49.450,396.375 46.861 C 396.375 44.272,396.278 42.718,396.117 42.718 C 395.974 42.718,395.858 42.252,395.858 41.683 C 395.858 41.113,395.741 40.647,395.599 40.647 C 395.456 40.647,395.340 40.414,395.340 40.129 C 395.340 39.845,395.223 39.612,395.081 39.612 C 394.939 39.612,394.822 39.379,394.822 39.094 C 394.822 38.809,394.706 38.576,394.563 38.576 C 394.421 38.576,394.304 38.401,394.304 38.188 C 394.304 37.974,394.199 37.799,394.071 37.799 C 393.942 37.799,393.718 37.458,393.573 37.041 C 393.278 36.197,391.541 34.434,391.003 34.434 C 390.813 34.434,390.408 34.201,390.102 33.916 C 389.796 33.631,389.394 33.398,389.207 33.398 C 389.020 33.398,388.867 33.282,388.867 33.139 C 388.867 32.997,388.576 32.880,388.220 32.880 C 387.864 32.880,387.573 32.764,387.573 32.621 C 387.573 32.479,387.340 32.362,387.055 32.362 C 386.770 32.362,386.537 32.246,386.537 32.104 C 386.537 31.961,386.253 31.845,385.905 31.845 C 385.558 31.845,385.198 31.723,385.106 31.573 C 385.013 31.424,384.744 31.332,384.508 31.368 C 384.271 31.404,383.802 31.281,383.466 31.096 C 383.130 30.911,382.582 30.812,382.249 30.875 C 381.914 30.940,381.590 30.850,381.523 30.676 C 381.451 30.488,381.026 30.390,380.476 30.433 C 379.967 30.474,379.485 30.400,379.404 30.270 C 379.323 30.139,378.915 30.032,378.496 30.032 C 378.077 30.032,377.735 29.916,377.735 29.773 C 377.735 29.631,377.327 29.515,376.828 29.515 C 376.330 29.515,375.922 29.398,375.922 29.256 C 375.922 29.113,375.456 28.997,374.887 28.997 C 374.297 28.997,373.851 28.872,373.851 28.708 C 373.851 28.539,373.582 28.470,373.204 28.542 C 372.848 28.610,372.353 28.511,372.104 28.322 C 371.855 28.133,371.388 27.974,371.068 27.969 C 370.748 27.965,370.485 27.873,370.485 27.765 C 370.485 27.658,370.107 27.403,369.644 27.199 C 369.181 26.995,368.671 26.704,368.511 26.553 C 368.350 26.402,367.972 26.107,367.669 25.898 C 367.367 25.688,367.120 25.309,367.120 25.056 C 367.120 24.803,367.003 24.595,366.861 24.595 C 366.378 24.595,366.580 22.179,367.120 21.489 C 367.398 21.133,367.629 20.696,367.632 20.518 C 367.635 20.340,367.812 20.194,368.026 20.194 C 368.239 20.194,368.414 20.078,368.414 19.935 C 368.414 19.793,368.596 19.676,368.818 19.676 C 369.040 19.676,369.149 19.560,369.061 19.417 C 368.965 19.261,369.318 19.159,369.952 19.159 C 370.530 19.159,371.003 19.042,371.003 18.900 C 371.003 18.757,371.353 18.641,371.780 18.641 L 372.557 18.641 372.557 13.884 L 372.557 9.127 371.401 9.104 C 370.765 9.091,370.176 9.193,370.091 9.330 M377.476 10.259 C 377.476 10.882,377.563 11.392,377.670 11.391 C 377.777 11.391,377.864 13.110,377.864 15.210 L 377.864 19.029 378.576 19.111 C 378.968 19.156,379.288 19.302,379.288 19.435 C 379.288 19.568,379.521 19.676,379.806 19.676 C 380.091 19.676,380.324 19.793,380.324 19.935 C 380.324 20.078,380.510 20.194,380.738 20.194 C 381.555 20.194,382.829 21.931,382.684 22.848 C 382.668 22.955,382.770 23.042,382.913 23.042 C 383.055 23.042,383.172 23.559,383.172 24.192 C 383.172 24.824,383.288 25.414,383.430 25.502 C 383.573 25.590,383.689 25.946,383.689 26.294 C 383.689 26.795,383.823 26.926,384.337 26.926 C 384.693 26.926,384.984 26.809,384.984 26.667 C 384.984 26.514,385.916 26.408,387.262 26.408 C 388.726 26.408,389.665 26.292,389.889 26.084 C 390.081 25.906,390.172 25.880,390.091 26.027 C 389.897 26.377,393.277 26.228,394.757 25.821 C 395.799 25.534,396.502 24.078,395.599 24.078 C 395.456 24.078,395.340 23.437,395.340 22.654 C 395.340 21.871,395.223 21.230,395.081 21.230 C 394.939 21.230,394.822 20.880,394.822 20.453 C 394.822 20.026,394.720 19.676,394.596 19.676 C 394.472 19.676,394.300 19.235,394.214 18.696 C 394.127 18.156,393.850 17.482,393.598 17.197 C 393.346 16.912,393.103 16.516,393.058 16.317 C 393.014 16.118,392.752 15.759,392.476 15.520 C 392.200 15.281,391.974 15.003,391.974 14.903 C 391.974 14.603,391.258 13.981,390.914 13.981 C 390.738 13.981,390.665 13.908,390.754 13.820 C 390.950 13.624,390.305 12.945,389.921 12.945 C 389.769 12.945,389.644 12.848,389.644 12.730 C 389.644 12.611,389.324 12.349,388.932 12.147 C 388.540 11.945,387.994 11.576,387.718 11.327 C 387.442 11.078,387.077 10.874,386.906 10.874 C 386.736 10.874,386.263 10.700,385.855 10.487 C 385.447 10.274,384.676 10.100,384.142 10.099 C 383.608 10.098,383.172 9.981,383.172 9.838 C 383.172 9.692,382.438 9.579,381.489 9.579 C 380.563 9.579,379.806 9.467,379.806 9.330 C 379.806 9.193,379.282 9.091,378.641 9.104 L 377.476 9.127 377.476 10.259 M18.641 9.838 C 18.641 9.981,18.233 10.097,17.735 10.097 C 17.236 10.097,16.828 10.210,16.828 10.348 C 16.828 10.486,16.669 10.537,16.474 10.463 C 16.279 10.388,15.693 10.566,15.172 10.859 C 14.650 11.152,14.053 11.392,13.843 11.392 C 13.634 11.392,13.463 11.508,13.463 11.650 C 13.463 11.793,13.288 11.909,13.074 11.909 C 12.861 11.909,12.686 12.026,12.686 12.168 C 12.686 12.311,12.475 12.427,12.217 12.427 C 11.714 12.427,10.615 13.322,10.615 13.732 C 10.615 13.869,10.403 13.981,10.143 13.981 C 9.669 13.981,7.249 16.108,7.249 16.526 C 7.249 16.649,7.016 17.018,6.731 17.346 C 6.447 17.675,6.214 18.178,6.214 18.465 C 6.214 18.751,6.141 18.914,6.053 18.826 C 5.824 18.596,5.178 19.305,5.178 19.787 C 5.178 20.011,5.061 20.194,4.919 20.194 C 4.777 20.194,4.660 20.420,4.660 20.697 C 4.660 20.973,4.544 21.271,4.401 21.359 C 4.259 21.447,4.142 21.745,4.142 22.022 C 4.142 22.298,4.026 22.524,3.883 22.524 C 3.741 22.524,3.625 22.874,3.625 23.301 C 3.625 23.728,3.495 24.078,3.336 24.078 C 3.166 24.078,3.098 24.348,3.171 24.731 C 3.243 25.105,3.157 25.466,2.971 25.573 C 2.604 25.785,2.343 27.476,2.258 30.205 C 2.227 31.225,2.113 32.147,2.006 32.254 C 1.732 32.530,1.764 40.846,2.041 41.017 C 2.166 41.094,2.244 42.004,2.213 43.038 C 2.183 44.073,2.299 45.269,2.471 45.696 C 2.643 46.123,2.742 46.729,2.690 47.042 C 2.639 47.355,2.711 47.682,2.852 47.769 C 2.992 47.856,3.107 48.270,3.107 48.688 C 3.107 49.107,3.223 49.450,3.366 49.450 C 3.508 49.450,3.625 49.741,3.625 50.097 C 3.625 50.453,3.741 50.744,3.883 50.744 C 4.026 50.744,4.142 50.961,4.142 51.226 C 4.142 51.680,5.638 54.867,5.982 55.146 C 6.070 55.217,6.348 55.678,6.600 56.170 C 6.852 56.661,7.538 57.503,8.125 58.039 C 8.711 58.576,9.547 59.367,9.981 59.799 C 10.416 60.230,10.911 60.583,11.082 60.583 C 11.252 60.583,11.392 60.687,11.392 60.814 C 11.392 61.295,14.848 62.711,16.353 62.848 C 17.184 62.923,17.864 63.085,17.864 63.207 C 17.864 63.330,19.269 63.430,20.986 63.430 C 23.002 63.430,24.052 63.339,23.948 63.172 C 23.860 63.029,23.970 62.913,24.192 62.913 C 24.543 62.913,24.595 62.268,24.595 57.906 L 24.595 52.899 23.936 52.598 C 23.573 52.433,23.106 52.298,22.897 52.298 C 22.688 52.298,22.315 52.194,22.068 52.068 C 21.820 51.941,20.977 51.514,20.194 51.119 C 19.411 50.723,18.595 50.180,18.382 49.912 C 18.168 49.644,17.732 49.110,17.411 48.726 C 17.091 48.341,16.829 47.880,16.829 47.702 C 16.829 47.524,16.712 47.379,16.570 47.379 C 16.427 47.379,16.311 47.204,16.311 46.990 C 16.311 46.777,16.194 46.602,16.052 46.602 C 15.909 46.602,15.793 46.369,15.793 46.084 C 15.793 45.799,15.676 45.566,15.534 45.566 C 15.392 45.566,15.275 45.168,15.275 44.682 C 15.275 44.195,15.156 43.757,15.010 43.709 C 14.864 43.660,14.737 42.778,14.728 41.746 C 14.716 40.509,14.608 39.869,14.410 39.867 C 14.217 39.864,14.233 39.785,14.455 39.644 C 14.676 39.504,14.784 38.973,14.755 38.159 C 14.620 34.283,14.782 28.205,15.016 28.350 C 15.167 28.443,15.275 28.180,15.275 27.718 C 15.275 27.282,15.392 26.926,15.534 26.926 C 15.676 26.926,15.793 26.693,15.793 26.408 C 15.793 26.123,15.881 25.890,15.989 25.890 C 16.096 25.890,16.352 25.511,16.556 25.049 C 16.761 24.586,17.197 23.917,17.526 23.563 C 17.854 23.208,18.123 22.752,18.123 22.548 C 18.123 22.345,18.195 22.251,18.283 22.339 C 18.371 22.427,18.590 22.360,18.769 22.188 C 18.949 22.017,19.336 21.710,19.631 21.506 C 19.925 21.302,20.108 21.040,20.036 20.924 C 19.964 20.807,20.086 20.697,20.308 20.680 C 21.051 20.620,21.186 20.584,21.381 20.388 C 21.488 20.282,21.779 20.194,22.028 20.194 C 22.277 20.194,22.524 20.065,22.577 19.906 C 22.630 19.748,23.106 19.607,23.634 19.593 L 24.595 19.567 24.595 14.573 L 24.595 9.579 21.618 9.579 C 19.806 9.579,18.641 9.681,18.641 9.838 M30.032 14.628 L 30.032 19.676 30.939 19.676 C 31.437 19.676,31.845 19.793,31.845 19.935 C 31.845 20.078,32.058 20.194,32.319 20.194 C 32.580 20.194,32.881 20.282,32.988 20.388 C 33.172 20.572,33.266 20.601,33.931 20.680 C 34.082 20.697,34.133 20.828,34.045 20.971 C 33.957 21.113,34.038 21.233,34.224 21.237 C 34.717 21.248,36.246 22.708,36.246 23.168 C 36.246 23.383,36.333 23.561,36.440 23.562 C 36.673 23.564,37.282 24.818,37.282 25.294 C 37.282 25.480,37.398 25.631,37.540 25.631 C 37.683 25.631,37.799 25.922,37.799 26.278 C 37.799 26.634,37.916 26.926,38.058 26.926 C 38.201 26.926,38.317 27.159,38.317 27.443 C 38.317 27.863,38.490 27.961,39.223 27.961 C 39.722 27.961,40.129 27.845,40.129 27.702 C 40.129 27.541,41.597 27.443,44.013 27.443 C 46.429 27.443,47.896 27.346,47.896 27.184 C 47.896 27.042,48.362 26.926,48.932 26.926 L 49.968 26.926 49.968 25.628 C 49.968 24.409,49.122 22.001,48.621 21.791 C 48.507 21.743,48.414 21.494,48.414 21.236 C 48.414 20.978,48.232 20.697,48.009 20.612 C 47.787 20.527,47.676 20.341,47.764 20.199 C 47.851 20.058,47.684 19.685,47.392 19.372 C 47.100 19.059,46.861 18.701,46.861 18.577 C 46.861 18.453,46.757 18.416,46.630 18.494 C 46.502 18.573,46.325 18.347,46.236 17.992 C 46.147 17.637,45.960 17.346,45.820 17.346 C 45.681 17.346,45.566 17.207,45.566 17.037 C 45.566 16.648,44.270 15.276,43.900 15.273 C 43.748 15.272,43.195 14.864,42.671 14.367 C 42.147 13.870,41.593 13.463,41.441 13.463 C 41.289 13.463,41.165 13.346,41.165 13.204 C 41.165 13.061,40.932 12.945,40.647 12.945 C 40.362 12.945,40.129 12.816,40.129 12.658 C 40.129 12.501,39.955 12.439,39.741 12.521 C 39.505 12.612,39.353 12.521,39.353 12.290 C 39.353 12.080,39.182 11.909,38.972 11.909 C 38.763 11.909,38.210 11.697,37.743 11.437 C 37.275 11.177,36.252 10.746,35.469 10.479 C 34.686 10.211,33.935 9.900,33.799 9.786 C 33.664 9.672,32.761 9.579,31.793 9.579 L 30.032 9.579 30.032 14.628 M73.269 10.630 C 73.269 10.923,73.152 11.091,73.010 11.003 C 72.859 10.910,72.751 11.173,72.751 11.635 C 72.751 12.071,72.634 12.427,72.492 12.427 C 72.350 12.427,72.233 12.777,72.233 13.204 C 72.233 13.631,72.117 13.981,71.974 13.981 C 71.832 13.981,71.715 14.265,71.715 14.613 C 71.715 14.960,71.588 15.323,71.431 15.420 C 71.275 15.516,71.196 15.925,71.255 16.328 C 71.314 16.730,71.267 17.001,71.151 16.929 C 70.968 16.816,70.816 17.604,70.908 18.188 C 70.925 18.294,70.822 18.382,70.680 18.382 C 70.537 18.382,70.421 18.673,70.421 19.029 C 70.421 19.385,70.304 19.676,70.162 19.676 C 70.019 19.676,69.903 20.026,69.903 20.453 C 69.903 20.880,69.786 21.230,69.644 21.230 C 69.502 21.230,69.385 21.463,69.385 21.748 C 69.385 22.032,69.269 22.265,69.126 22.265 C 68.984 22.265,68.867 22.615,68.867 23.042 C 68.867 23.469,68.751 23.819,68.608 23.819 C 68.466 23.819,68.350 24.110,68.350 24.466 C 68.350 24.822,68.233 25.113,68.091 25.113 C 67.948 25.113,67.832 25.521,67.832 26.019 C 67.832 26.518,67.715 26.926,67.573 26.926 C 67.430 26.926,67.314 27.139,67.314 27.400 C 67.314 27.661,67.234 27.955,67.136 28.053 C 67.038 28.151,66.925 28.432,66.884 28.678 C 66.638 30.162,66.451 30.832,66.248 30.957 C 66.122 31.035,66.019 31.383,66.019 31.730 C 66.019 32.078,65.903 32.362,65.761 32.362 C 65.618 32.362,65.502 32.712,65.502 33.139 C 65.502 33.566,65.385 33.916,65.243 33.916 C 65.100 33.916,64.984 34.272,64.984 34.708 C 64.984 35.170,64.876 35.433,64.725 35.340 C 64.579 35.249,64.466 35.461,64.466 35.827 C 64.466 36.183,64.373 36.532,64.258 36.603 C 64.144 36.673,63.888 37.328,63.689 38.058 C 63.491 38.788,63.245 39.437,63.145 39.499 C 63.044 39.561,63.022 39.845,63.097 40.130 C 63.172 40.419,63.104 40.647,62.943 40.647 C 62.784 40.647,62.654 40.997,62.654 41.424 C 62.654 41.851,62.537 42.201,62.395 42.201 C 62.252 42.201,62.136 42.492,62.136 42.848 C 62.136 43.204,62.019 43.495,61.877 43.495 C 61.735 43.495,61.618 43.845,61.618 44.272 C 61.618 44.699,61.502 45.049,61.359 45.049 C 61.217 45.049,61.100 45.463,61.100 45.970 C 61.100 46.608,61.007 46.834,60.797 46.704 C 60.595 46.579,60.548 46.657,60.657 46.940 C 60.746 47.173,60.650 47.533,60.442 47.741 C 60.235 47.949,60.065 48.418,60.065 48.784 C 60.065 49.150,59.948 49.450,59.806 49.450 C 59.663 49.450,59.547 49.734,59.547 50.082 C 59.547 50.429,59.444 50.777,59.318 50.855 C 59.116 50.980,58.929 51.650,58.683 53.134 C 58.642 53.380,58.528 53.662,58.430 53.760 C 58.332 53.857,58.252 54.186,58.252 54.490 C 58.252 54.794,58.107 55.199,57.929 55.391 C 57.726 55.609,57.717 55.677,57.905 55.572 C 58.131 55.445,58.131 55.561,57.905 56.049 C 57.740 56.404,57.518 56.696,57.411 56.697 C 57.304 56.698,57.217 57.049,57.217 57.476 C 57.217 57.903,57.100 58.252,56.958 58.252 C 56.816 58.252,56.699 58.544,56.699 58.900 C 56.699 59.256,56.583 59.547,56.440 59.547 C 56.298 59.547,56.181 60.123,56.181 60.826 L 56.181 62.105 62.666 62.127 C 69.691 62.150,69.903 62.110,69.903 60.746 C 69.903 60.388,70.031 60.016,70.187 59.920 C 70.343 59.823,70.421 59.409,70.361 58.998 C 70.301 58.588,70.348 58.252,70.466 58.252 C 70.583 58.252,70.680 57.903,70.680 57.476 C 70.680 57.049,70.796 56.699,70.939 56.699 C 71.081 56.699,71.197 56.350,71.197 55.922 C 71.197 55.495,71.314 55.146,71.456 55.146 C 71.599 55.146,71.715 54.738,71.715 54.239 C 71.715 53.741,71.817 53.333,71.942 53.333 C 72.066 53.333,72.168 53.018,72.168 52.632 C 72.168 52.246,72.299 51.887,72.460 51.834 C 72.620 51.780,72.751 51.339,72.751 50.852 C 72.751 50.366,72.867 49.968,73.010 49.968 C 73.152 49.968,73.269 49.618,73.269 49.191 C 73.269 48.764,73.384 48.414,73.525 48.414 C 73.665 48.414,73.769 48.152,73.755 47.832 C 73.732 47.280,74.079 46.111,74.632 44.879 C 74.770 44.572,74.809 44.202,74.719 44.056 C 74.629 43.909,74.673 43.717,74.818 43.627 C 74.963 43.538,75.081 43.064,75.081 42.574 C 75.081 42.084,75.197 41.683,75.340 41.683 C 75.482 41.683,75.599 41.333,75.599 40.906 C 75.599 40.479,75.715 40.129,75.858 40.129 C 76.000 40.129,76.117 39.729,76.117 39.239 C 76.117 38.749,76.233 38.276,76.375 38.188 C 76.518 38.100,76.634 37.750,76.634 37.411 C 76.634 37.072,76.751 36.722,76.893 36.634 C 77.036 36.546,77.152 36.073,77.152 35.583 C 77.152 35.093,77.269 34.693,77.411 34.693 C 77.553 34.693,77.670 34.408,77.670 34.061 C 77.670 33.713,77.786 33.357,77.929 33.269 C 78.071 33.181,78.188 32.715,78.188 32.233 C 78.188 31.751,78.299 31.289,78.435 31.205 C 78.570 31.121,78.760 30.357,78.856 29.507 C 78.953 28.657,79.133 27.961,79.257 27.961 C 79.381 27.961,79.482 27.560,79.482 27.070 C 79.482 26.580,79.599 26.107,79.741 26.019 C 79.883 25.931,80.000 25.510,80.000 25.083 C 80.000 24.631,80.108 24.373,80.259 24.466 C 80.401 24.554,80.518 25.134,80.518 25.754 C 80.518 26.385,80.651 26.927,80.821 26.983 C 80.987 27.039,81.107 27.509,81.088 28.030 C 81.068 28.551,81.165 29.046,81.303 29.131 C 81.441 29.217,81.553 29.629,81.553 30.048 C 81.553 30.466,81.670 30.809,81.812 30.809 C 81.955 30.809,82.071 31.159,82.071 31.586 C 82.071 32.013,82.188 32.362,82.330 32.362 C 82.472 32.362,82.589 32.719,82.589 33.154 C 82.589 33.656,82.692 33.883,82.869 33.773 C 83.039 33.668,83.118 33.789,83.070 34.082 C 83.026 34.346,83.093 34.727,83.218 34.927 C 83.368 35.166,83.351 35.232,83.169 35.119 C 82.885 34.944,83.178 36.120,83.659 37.084 C 83.783 37.331,83.883 37.768,83.883 38.055 C 83.883 38.341,84.000 38.576,84.142 38.576 C 84.285 38.576,84.401 39.042,84.401 39.612 C 84.401 40.181,84.518 40.647,84.660 40.647 C 84.803 40.647,84.919 40.764,84.919 40.906 C 84.919 41.049,84.395 41.165,83.754 41.165 C 83.113 41.165,82.589 41.282,82.589 41.424 C 82.589 41.566,81.943 41.683,81.154 41.683 C 79.635 41.683,78.970 42.036,79.156 42.746 C 79.218 42.984,79.142 43.256,78.987 43.352 C 78.832 43.447,78.706 43.861,78.706 44.272 C 78.706 44.682,78.589 45.090,78.447 45.178 C 78.304 45.266,78.188 45.681,78.188 46.099 C 78.188 46.518,78.071 46.861,77.929 46.861 C 77.786 46.861,77.670 47.210,77.670 47.638 C 77.670 48.065,77.553 48.414,77.411 48.414 C 77.269 48.414,77.152 48.939,77.152 49.579 L 77.152 50.744 82.576 50.744 C 88.356 50.744,88.679 50.817,88.358 52.046 C 88.293 52.295,88.366 52.576,88.521 52.672 C 88.676 52.768,88.803 53.124,88.803 53.463 C 88.803 53.802,88.919 54.151,89.061 54.239 C 89.204 54.327,89.320 54.684,89.320 55.031 C 89.320 55.379,89.437 55.663,89.579 55.663 C 89.722 55.663,89.838 56.013,89.838 56.440 C 89.838 56.867,89.955 57.217,90.097 57.217 C 90.239 57.217,90.356 57.625,90.356 58.123 C 90.356 58.621,90.472 59.029,90.615 59.029 C 90.757 59.029,90.874 59.379,90.874 59.806 C 90.874 60.233,90.990 60.583,91.133 60.583 C 91.275 60.583,91.392 60.927,91.392 61.348 L 91.392 62.114 98.123 62.118 L 104.854 62.121 104.854 61.089 C 104.854 60.522,104.754 59.855,104.632 59.608 C 104.510 59.361,104.222 58.796,103.992 58.353 C 103.762 57.911,103.648 57.474,103.739 57.383 C 103.830 57.291,103.785 57.217,103.638 57.217 C 103.491 57.217,103.297 56.675,103.206 56.013 C 103.116 55.351,102.946 54.681,102.829 54.525 C 102.713 54.368,102.467 53.715,102.282 53.074 C 101.932 51.855,101.585 50.922,101.200 50.165 C 101.074 49.918,100.971 49.539,100.971 49.324 C 100.971 49.108,100.854 48.932,100.712 48.932 C 100.570 48.932,100.453 48.583,100.453 48.155 C 100.453 47.728,100.337 47.379,100.194 47.379 C 100.052 47.379,99.935 47.087,99.935 46.731 C 99.935 46.375,99.819 46.084,99.676 46.084 C 99.534 46.084,99.417 45.735,99.417 45.307 C 99.417 44.880,99.301 44.531,99.159 44.531 C 99.016 44.531,98.900 44.302,98.900 44.022 C 98.900 43.449,98.238 41.271,97.856 40.586 C 97.718 40.339,97.605 39.902,97.605 39.615 C 97.605 39.328,97.489 39.094,97.346 39.094 C 97.204 39.094,97.087 38.803,97.087 38.447 C 97.087 38.091,96.971 37.799,96.828 37.799 C 96.686 37.799,96.570 37.443,96.570 37.007 C 96.570 36.545,96.462 36.282,96.311 36.375 C 96.160 36.468,96.052 36.211,96.052 35.759 C 96.052 35.332,95.935 34.910,95.793 34.822 C 95.650 34.734,95.534 34.387,95.534 34.052 C 95.534 33.716,95.412 33.401,95.264 33.351 C 95.115 33.302,94.944 32.864,94.882 32.378 C 94.821 31.892,94.680 31.428,94.569 31.346 C 94.458 31.264,94.327 30.848,94.279 30.421 C 94.230 29.994,94.085 29.605,93.956 29.558 C 93.827 29.510,93.722 29.132,93.722 28.716 C 93.722 28.301,93.605 27.961,93.463 27.961 C 93.320 27.961,93.204 27.677,93.204 27.329 C 93.204 26.982,93.087 26.625,92.945 26.537 C 92.803 26.449,92.686 26.093,92.686 25.745 C 92.686 25.398,92.570 25.113,92.427 25.113 C 92.285 25.113,92.168 24.815,92.168 24.451 C 92.168 24.075,92.056 23.857,91.909 23.948 C 91.767 24.036,91.650 23.875,91.650 23.590 C 91.650 23.306,91.549 23.010,91.426 22.934 C 91.302 22.857,91.122 22.199,91.025 21.472 C 90.929 20.744,90.739 19.926,90.603 19.654 C 90.467 19.381,90.239 18.927,90.097 18.644 C 89.955 18.361,89.838 17.837,89.838 17.479 C 89.838 17.121,89.722 16.828,89.579 16.828 C 89.437 16.828,89.320 16.594,89.320 16.307 C 89.320 16.020,89.217 15.584,89.092 15.336 C 88.966 15.089,88.719 14.537,88.544 14.110 C 88.368 13.683,88.121 13.131,87.996 12.884 C 87.870 12.637,87.767 12.193,87.767 11.898 C 87.767 11.602,87.650 11.433,87.508 11.521 C 87.363 11.610,87.249 11.411,87.249 11.068 L 87.249 10.456 81.424 10.471 C 78.220 10.479,75.599 10.398,75.599 10.291 C 75.599 10.184,75.074 10.097,74.434 10.097 C 73.430 10.097,73.269 10.171,73.269 10.630 M254.757 15.371 L 254.757 20.690 259.093 20.698 C 261.783 20.702,263.461 20.805,263.516 20.968 C 263.564 21.112,263.826 21.230,264.099 21.230 C 264.372 21.230,264.595 21.333,264.595 21.458 C 264.595 21.584,264.828 21.748,265.112 21.822 C 265.396 21.897,265.708 22.172,265.805 22.435 C 265.902 22.698,266.082 22.981,266.205 23.064 C 266.582 23.319,266.476 30.347,266.091 30.591 C 265.909 30.707,265.865 30.803,265.993 30.805 C 266.121 30.807,265.860 31.159,265.413 31.586 C 264.966 32.013,264.483 32.362,264.339 32.362 C 264.195 32.362,264.078 32.479,264.078 32.621 C 264.078 32.764,263.738 32.880,263.323 32.880 C 262.907 32.880,262.529 32.995,262.481 33.135 C 262.434 33.276,261.375 33.405,260.128 33.422 C 258.881 33.439,257.796 33.558,257.718 33.685 C 257.639 33.812,257.107 33.916,256.536 33.916 C 254.829 33.916,254.757 34.115,254.757 38.816 L 254.757 42.977 255.938 42.977 C 256.659 42.977,257.056 43.078,256.958 43.236 C 256.859 43.397,257.344 43.495,258.237 43.495 C 259.029 43.495,259.676 43.612,259.676 43.754 C 259.676 43.896,260.033 44.013,260.468 44.013 C 260.904 44.013,261.197 44.116,261.119 44.242 C 260.987 44.455,261.887 44.882,262.330 44.818 C 262.437 44.802,262.524 44.911,262.524 45.060 C 262.524 45.438,263.729 46.605,263.921 46.414 C 264.007 46.327,264.078 46.626,264.078 47.077 C 264.078 47.528,264.194 47.896,264.337 47.896 C 264.479 47.896,264.595 48.285,264.595 48.759 C 264.595 49.234,264.679 49.706,264.780 49.807 C 264.882 49.909,264.996 50.424,265.034 50.951 C 265.192 53.179,265.437 54.628,265.656 54.628 C 265.785 54.628,265.890 55.087,265.890 55.648 C 265.890 56.209,266.006 56.740,266.149 56.828 C 266.291 56.916,266.408 57.331,266.408 57.750 C 266.408 58.169,266.524 58.511,266.667 58.511 C 266.809 58.511,266.926 58.861,266.926 59.288 C 266.926 59.715,267.042 60.065,267.184 60.065 C 267.327 60.065,267.443 60.305,267.443 60.598 C 267.443 60.891,267.547 61.067,267.675 60.988 C 267.802 60.909,267.980 61.139,268.070 61.499 L 268.234 62.153 274.376 62.080 L 280.518 62.006 280.597 61.327 C 280.640 60.953,280.514 60.486,280.317 60.289 C 280.120 60.092,280.007 59.786,280.065 59.609 C 280.124 59.433,280.072 59.288,279.949 59.288 C 279.825 59.288,279.698 58.968,279.666 58.576 C 279.634 58.184,279.492 57.825,279.351 57.778 C 279.209 57.730,279.094 57.352,279.094 56.936 C 279.094 56.521,278.977 56.181,278.835 56.181 C 278.693 56.181,278.576 55.890,278.576 55.534 C 278.576 55.178,278.460 54.887,278.317 54.887 C 278.175 54.887,278.058 54.486,278.058 53.996 C 278.058 53.506,277.942 53.033,277.799 52.945 C 277.657 52.857,277.539 52.238,277.536 51.570 C 277.534 50.823,277.450 50.487,277.317 50.696 C 277.188 50.899,277.030 50.014,276.923 48.499 C 276.825 47.103,276.632 45.849,276.495 45.712 C 276.358 45.575,276.244 45.224,276.242 44.932 C 276.238 44.341,275.664 42.568,275.388 42.292 C 275.290 42.194,275.210 41.901,275.210 41.640 C 275.210 41.379,275.102 41.165,274.969 41.165 C 274.836 41.165,274.655 40.938,274.567 40.660 C 274.371 40.041,273.001 38.541,272.809 38.734 C 272.732 38.811,272.592 38.632,272.498 38.337 C 272.403 38.037,272.106 37.799,271.827 37.799 C 271.547 37.799,271.327 37.622,271.327 37.396 C 271.327 37.174,271.450 37.068,271.600 37.161 C 271.749 37.253,272.084 37.085,272.342 36.788 C 272.600 36.490,272.941 36.246,273.099 36.246 C 273.705 36.246,276.326 33.463,276.151 33.006 C 276.030 32.690,276.087 32.604,276.351 32.706 C 276.554 32.784,276.785 32.680,276.864 32.476 C 276.942 32.271,276.876 32.104,276.716 32.104 C 276.556 32.104,276.676 31.886,276.983 31.620 C 277.290 31.354,277.540 30.946,277.540 30.714 C 277.540 30.481,277.657 30.291,277.799 30.291 C 277.942 30.291,278.058 29.767,278.058 29.126 C 278.058 28.485,278.175 27.961,278.317 27.961 C 278.477 27.961,278.576 26.629,278.576 24.481 C 278.576 22.441,278.469 20.935,278.317 20.841 C 278.175 20.753,278.058 20.287,278.058 19.806 C 278.058 19.324,277.942 18.858,277.799 18.770 C 277.657 18.682,277.540 18.326,277.540 17.978 C 277.540 17.631,277.439 17.346,277.314 17.346 C 277.189 17.346,277.018 17.001,276.934 16.578 C 276.666 15.240,272.933 11.909,271.700 11.909 C 271.495 11.909,271.327 11.793,271.327 11.650 C 271.327 11.508,270.868 11.392,270.307 11.392 C 269.745 11.392,269.209 11.267,269.115 11.115 C 269.021 10.962,268.456 10.868,267.860 10.905 C 267.263 10.941,266.605 10.866,266.397 10.736 C 266.189 10.607,264.505 10.475,262.654 10.443 C 260.803 10.411,258.269 10.310,257.023 10.219 L 254.757 10.052 254.757 15.371 M111.586 36.311 L 111.586 62.136 117.411 62.136 L 123.236 62.136 123.236 36.311 L 123.236 10.485 117.411 10.485 L 111.586 10.485 111.586 36.311 M151.974 36.311 L 151.974 62.136 157.799 62.136 L 163.625 62.136 163.625 36.311 L 163.625 10.485 157.799 10.485 L 151.974 10.485 151.974 36.311 M193.398 36.311 L 193.398 62.136 199.225 62.136 L 205.051 62.136 204.985 36.369 L 204.919 10.602 199.158 10.544 L 193.398 10.485 193.398 36.311 M210.485 15.340 L 210.485 20.194 220.712 20.194 L 230.939 20.194 230.939 15.340 L 230.939 10.485 220.712 10.485 L 210.485 10.485 210.485 15.340 M238.296 10.593 C 238.236 10.653,238.188 22.274,238.188 36.419 L 238.188 62.136 244.013 62.136 L 249.838 62.136 249.838 36.311 L 249.838 10.485 244.121 10.485 C 240.977 10.485,238.355 10.534,238.296 10.593 M289.384 36.246 L 289.447 62.006 295.209 62.006 L 300.971 62.006 300.971 36.301 L 300.971 10.595 295.146 10.540 L 289.320 10.485 289.384 36.246 M326.214 15.340 L 326.214 20.194 336.440 20.194 L 346.667 20.194 346.667 15.340 L 346.667 10.485 336.440 10.485 L 326.214 10.485 326.214 15.340 M309.385 36.380 L 309.385 62.146 315.146 62.076 L 320.906 62.006 320.972 36.311 L 321.038 10.615 315.212 10.615 L 309.385 10.615 309.385 36.380 M210.658 30.205 C 210.563 30.300,210.485 32.455,210.485 34.995 L 210.485 39.612 219.676 39.612 L 228.867 39.612 228.867 34.822 L 228.867 30.032 219.849 30.032 C 214.889 30.032,210.753 30.110,210.658 30.205 M326.214 34.822 L 326.214 39.612 335.534 39.612 L 344.854 39.612 344.854 34.822 L 344.854 30.032 335.534 30.032 L 326.214 30.032 326.214 34.822 M30.291 37.929 L 30.291 42.460 32.751 42.460 C 34.218 42.460,35.210 42.564,35.210 42.718 C 35.210 43.097,37.214 43.037,37.369 42.654 C 37.473 42.395,37.504 42.395,37.520 42.654 C 37.532 42.836,37.879 42.977,38.317 42.977 C 39.080 42.977,39.345 43.309,38.834 43.625 C 38.691 43.714,38.645 44.070,38.733 44.417 C 38.829 44.802,38.779 45.049,38.604 45.049 C 38.446 45.049,38.317 45.398,38.317 45.825 C 38.317 46.252,38.222 46.602,38.107 46.602 C 37.991 46.602,37.736 47.010,37.540 47.508 C 37.345 48.006,37.090 48.414,36.974 48.414 C 36.859 48.414,36.764 48.602,36.764 48.832 C 36.764 49.304,35.104 50.920,34.385 51.148 C 34.127 51.230,33.916 51.406,33.916 51.538 C 33.916 51.671,33.706 51.780,33.450 51.780 C 33.194 51.780,32.868 51.896,32.726 52.037 C 32.585 52.179,32.154 52.321,31.769 52.353 C 31.383 52.385,31.068 52.502,31.068 52.613 C 31.068 52.724,30.835 52.816,30.550 52.816 C 30.050 52.816,30.032 52.988,30.032 57.864 L 30.032 62.913 31.413 62.913 C 32.173 62.913,32.881 62.825,32.988 62.718 C 33.095 62.612,33.260 62.514,33.355 62.502 C 33.823 62.441,34.607 61.993,34.982 61.571 C 35.212 61.312,35.565 61.100,35.766 61.100 C 35.967 61.100,36.300 60.867,36.505 60.583 C 36.710 60.298,37.006 60.065,37.163 60.065 C 37.319 60.065,37.700 59.773,38.010 59.417 C 38.319 59.061,38.702 58.770,38.861 58.770 C 39.020 58.770,39.080 58.589,38.995 58.368 C 38.902 58.127,38.948 58.033,39.111 58.133 C 39.259 58.225,39.592 58.056,39.850 57.758 C 40.500 57.008,40.647 57.076,40.647 58.123 C 40.647 58.621,40.764 59.029,40.906 59.029 C 41.049 59.029,41.151 59.117,41.134 59.223 C 41.118 59.330,41.118 60.029,41.134 60.777 L 41.165 62.136 45.534 62.136 L 49.902 62.136 50.084 55.210 C 50.184 51.401,50.306 46.304,50.356 43.883 C 50.406 41.463,50.512 38.113,50.593 36.440 L 50.740 33.398 40.516 33.398 L 30.291 33.398 30.291 37.929 M357.540 44.810 C 357.540 44.941,356.434 45.049,355.081 45.049 L 352.621 45.049 352.621 47.104 C 352.621 48.235,352.738 49.232,352.880 49.320 C 353.023 49.408,353.139 49.872,353.139 50.350 C 353.139 50.828,353.243 51.258,353.371 51.305 C 353.498 51.353,353.679 51.974,353.774 52.686 C 353.868 53.398,354.055 54.019,354.189 54.067 C 354.324 54.114,354.434 54.493,354.434 54.908 C 354.434 55.324,354.550 55.663,354.693 55.663 C 354.835 55.663,354.951 55.829,354.951 56.032 C 354.951 56.462,358.404 60.065,358.815 60.065 C 358.969 60.065,359.094 60.181,359.094 60.324 C 359.094 60.466,359.269 60.583,359.482 60.583 C 359.696 60.583,359.871 60.699,359.871 60.841 C 359.871 60.984,360.104 61.100,360.388 61.100 C 360.673 61.100,360.906 61.217,360.906 61.359 C 360.906 61.502,361.132 61.618,361.409 61.618 C 361.685 61.618,361.983 61.735,362.071 61.877 C 362.159 62.019,362.492 62.136,362.811 62.136 C 363.131 62.136,363.527 62.271,363.692 62.437 C 363.894 62.638,365.382 62.745,368.210 62.760 L 372.427 62.783 372.478 58.155 C 372.533 53.141,372.452 52.816,371.151 52.816 C 370.785 52.816,370.485 52.699,370.485 52.557 C 370.485 52.414,370.078 52.298,369.579 52.298 C 369.081 52.298,368.673 52.181,368.673 52.039 C 368.673 51.896,368.440 51.780,368.155 51.780 C 367.871 51.780,367.638 51.671,367.638 51.538 C 367.638 51.406,367.405 51.223,367.120 51.133 C 366.835 51.042,366.602 50.743,366.602 50.468 C 366.602 50.193,366.485 49.968,366.343 49.968 C 366.201 49.968,366.084 49.744,366.084 49.471 C 366.084 49.198,365.972 48.936,365.834 48.889 C 365.697 48.841,365.513 48.104,365.426 47.249 C 365.140 44.448,365.254 44.520,361.119 44.547 C 359.121 44.560,357.540 44.676,357.540 44.810 M128.673 57.217 L 128.673 62.136 138.123 62.136 L 147.573 62.136 147.573 57.217 L 147.573 52.298 138.123 52.298 L 128.673 52.298 128.673 57.217 M169.073 57.217 L 169.043 62.136 178.502 62.136 L 187.961 62.136 187.961 57.217 L 187.961 52.298 178.532 52.298 L 169.102 52.298 169.073 57.217 M210.485 57.206 L 210.485 62.114 220.971 62.130 L 231.456 62.146 231.456 57.222 L 231.456 52.298 220.971 52.298 L 210.485 52.298 210.485 57.206 M326.273 57.152 L 326.343 62.006 336.764 62.074 L 347.184 62.142 347.184 57.220 L 347.184 52.298 336.693 52.298 L 326.202 52.298 326.273 57.152 M143.731 98.265 C 143.566 98.627,143.430 99.145,143.430 99.414 C 143.430 99.684,143.314 99.977,143.172 100.065 C 143.029 100.153,142.913 100.509,142.913 100.857 C 142.913 101.204,142.796 101.489,142.654 101.489 C 142.511 101.489,142.395 101.838,142.395 102.265 C 142.395 102.693,142.278 103.042,142.136 103.042 C 141.994 103.042,141.877 103.333,141.877 103.689 C 141.877 104.045,141.761 104.337,141.618 104.337 C 141.476 104.337,141.359 104.686,141.359 105.113 C 141.359 105.540,141.243 105.890,141.100 105.890 C 140.958 105.890,140.841 106.239,140.841 106.667 C 140.841 107.094,140.753 107.443,140.646 107.443 C 140.372 107.443,139.760 109.490,139.945 109.789 C 140.027 109.923,139.972 110.032,139.821 110.032 C 139.670 110.032,139.547 110.258,139.547 110.535 C 139.547 110.811,139.430 111.109,139.288 111.197 C 139.146 111.285,139.029 111.635,139.029 111.974 C 139.029 112.313,138.913 112.663,138.770 112.751 C 138.628 112.839,138.511 113.195,138.511 113.543 C 138.511 113.890,138.395 114.175,138.252 114.175 C 138.110 114.175,137.994 114.459,137.994 114.807 C 137.994 115.154,137.877 115.511,137.735 115.599 C 137.592 115.687,137.476 116.108,137.476 116.535 C 137.476 117.058,137.378 117.251,137.176 117.127 C 136.970 117.000,136.923 117.118,137.024 117.505 C 137.108 117.826,137.014 118.224,136.805 118.433 C 136.605 118.634,136.440 118.983,136.440 119.208 C 136.440 119.434,136.331 119.821,136.197 120.068 C 135.863 120.686,135.569 121.977,135.639 122.524 C 135.670 122.773,135.572 122.977,135.421 122.977 C 135.269 122.977,135.146 123.210,135.146 123.495 C 135.146 123.780,135.029 124.013,134.887 124.013 C 134.744 124.013,134.628 124.190,134.628 124.405 C 134.628 125.033,134.003 126.861,133.788 126.861 C 133.680 126.861,133.590 127.065,133.588 127.314 C 133.584 127.844,132.992 129.618,132.734 129.877 C 132.636 129.974,132.557 130.326,132.557 130.658 C 132.557 130.990,132.449 131.262,132.316 131.262 C 132.184 131.262,131.996 131.903,131.898 132.686 C 131.800 133.469,131.617 134.110,131.491 134.110 C 131.365 134.110,131.262 134.460,131.262 134.887 C 131.262 135.314,131.146 135.663,131.003 135.663 C 130.861 135.663,130.744 135.955,130.744 136.311 C 130.744 136.667,130.642 136.958,130.518 136.958 C 130.393 136.958,130.291 137.273,130.291 137.659 C 130.291 138.045,130.160 138.404,130.000 138.457 C 129.840 138.511,129.709 138.894,129.709 139.310 C 129.709 139.725,129.592 140.065,129.450 140.065 C 129.307 140.065,129.191 140.356,129.191 140.712 C 129.191 141.068,129.074 141.359,128.932 141.359 C 128.790 141.359,128.673 141.709,128.673 142.136 C 128.673 142.563,128.570 142.913,128.444 142.913 C 128.241 142.913,128.063 143.511,127.809 145.043 C 127.768 145.290,127.654 145.571,127.557 145.669 C 127.459 145.767,127.379 146.177,127.379 146.580 C 127.379 146.984,127.262 147.314,127.120 147.314 C 126.977 147.314,126.861 147.838,126.861 148.479 L 126.861 149.644 133.222 149.644 C 140.113 149.644,140.324 149.602,140.324 148.239 C 140.324 147.872,140.432 147.573,140.565 147.573 C 140.698 147.573,140.797 147.218,140.784 146.784 C 140.772 146.350,140.896 145.861,141.061 145.697 C 141.225 145.532,141.359 145.130,141.359 144.803 C 141.359 144.475,141.476 144.207,141.618 144.207 C 141.761 144.207,141.877 143.864,141.877 143.446 C 141.877 143.027,141.994 142.612,142.136 142.524 C 142.278 142.436,142.395 142.022,142.395 141.603 C 142.395 141.184,142.511 140.841,142.654 140.841 C 142.796 140.841,142.913 140.499,142.913 140.080 C 142.913 139.661,143.018 139.254,143.146 139.174 C 143.274 139.095,143.461 138.331,143.560 137.476 C 143.659 136.622,143.845 135.922,143.974 135.922 C 144.102 135.922,144.207 135.580,144.207 135.161 C 144.207 134.742,144.324 134.327,144.466 134.239 C 144.608 134.151,144.725 133.737,144.725 133.318 C 144.725 132.899,144.827 132.557,144.951 132.557 C 145.076 132.557,145.178 132.241,145.178 131.855 C 145.178 131.470,145.309 131.111,145.469 131.057 C 145.629 131.004,145.761 130.562,145.761 130.076 C 145.761 129.589,145.877 129.191,146.019 129.191 C 146.162 129.191,146.278 128.848,146.278 128.430 C 146.278 128.011,146.395 127.596,146.537 127.508 C 146.680 127.420,146.796 127.012,146.796 126.602 C 146.796 126.192,146.905 125.788,147.039 125.706 C 147.172 125.624,147.289 125.355,147.298 125.108 C 147.344 123.915,147.652 122.460,147.859 122.460 C 147.986 122.460,148.091 122.110,148.091 121.683 C 148.091 121.256,148.207 120.906,148.350 120.906 C 148.492 120.906,148.608 120.433,148.608 119.855 C 148.608 119.221,148.711 118.868,148.867 118.964 C 149.018 119.057,149.126 118.800,149.126 118.348 C 149.126 117.921,149.243 117.499,149.385 117.411 C 149.528 117.323,149.644 116.850,149.644 116.360 C 149.644 115.870,149.753 115.469,149.886 115.469 C 150.018 115.469,150.117 115.097,150.104 114.641 C 150.091 114.186,150.215 113.769,150.380 113.714 C 150.545 113.659,150.680 113.274,150.680 112.859 C 150.680 112.443,150.796 112.104,150.939 112.104 C 151.081 112.104,151.197 112.667,151.197 113.355 C 151.197 114.043,151.285 114.694,151.392 114.800 C 151.498 114.907,151.606 115.247,151.631 115.555 C 151.738 116.865,152.060 118.340,152.268 118.468 C 152.391 118.544,152.492 118.891,152.492 119.239 C 152.492 119.586,152.608 119.871,152.751 119.871 C 152.893 119.871,153.010 120.213,153.010 120.632 C 153.010 121.051,153.126 121.465,153.269 121.553 C 153.411 121.641,153.528 122.046,153.528 122.453 C 153.528 122.860,153.659 123.237,153.819 123.290 C 153.979 123.344,154.110 123.703,154.110 124.088 C 154.110 124.474,154.212 124.790,154.337 124.790 C 154.461 124.790,154.563 125.139,154.563 125.566 C 154.563 125.994,154.680 126.343,154.822 126.343 C 154.964 126.343,155.081 126.741,155.081 127.228 C 155.081 127.714,155.227 128.164,155.405 128.228 C 156.057 128.461,155.310 128.756,154.176 128.713 C 153.534 128.689,153.010 128.786,153.010 128.930 C 153.010 129.073,152.419 129.191,151.697 129.191 C 150.169 129.191,149.644 129.584,149.644 130.726 C 149.644 131.163,149.528 131.521,149.385 131.521 C 149.243 131.521,149.126 131.805,149.126 132.153 C 149.126 132.501,149.010 132.857,148.867 132.945 C 148.725 133.033,148.608 133.441,148.608 133.851 C 148.608 134.262,148.492 134.669,148.350 134.757 C 148.207 134.845,148.091 135.195,148.091 135.534 C 148.091 135.873,147.974 136.223,147.832 136.311 C 147.544 136.489,147.488 137.471,147.730 138.102 C 147.866 138.456,148.578 138.511,153.016 138.511 C 158.820 138.511,158.964 138.537,158.964 139.575 C 158.964 139.987,159.068 140.324,159.195 140.324 C 159.322 140.324,159.497 140.761,159.585 141.294 C 159.892 143.160,159.935 143.301,160.178 143.252 C 160.313 143.225,160.373 143.545,160.312 143.964 C 160.245 144.417,160.317 144.725,160.488 144.725 C 160.647 144.725,160.777 145.068,160.777 145.486 C 160.777 145.905,160.893 146.320,161.036 146.408 C 161.178 146.496,161.294 146.845,161.294 147.184 C 161.294 147.524,161.411 147.873,161.553 147.961 C 161.696 148.049,161.812 148.464,161.812 148.883 L 161.812 149.644 168.673 149.644 L 175.534 149.644 175.534 148.756 C 175.534 148.268,175.386 147.715,175.204 147.527 C 175.023 147.338,174.864 147.010,174.852 146.796 C 174.799 145.884,174.418 144.744,174.208 144.874 C 174.083 144.951,173.981 144.658,173.981 144.222 C 173.981 143.787,173.864 143.430,173.722 143.430 C 173.579 143.430,173.463 143.081,173.463 142.654 C 173.463 142.227,173.346 141.877,173.204 141.877 C 173.061 141.877,172.945 141.528,172.945 141.100 C 172.945 140.673,172.828 140.324,172.686 140.324 C 172.544 140.324,172.427 140.032,172.427 139.676 C 172.427 139.320,172.326 139.029,172.202 139.029 C 172.079 139.029,171.912 138.538,171.831 137.938 C 171.751 137.338,171.531 136.726,171.342 136.579 C 171.153 136.431,171.037 136.049,171.084 135.728 C 171.131 135.408,171.044 135.146,170.892 135.146 C 170.739 135.146,170.615 134.796,170.615 134.369 C 170.615 133.942,170.498 133.592,170.356 133.592 C 170.214 133.592,170.097 133.373,170.097 133.104 C 170.097 132.836,169.928 132.290,169.722 131.893 C 169.516 131.495,169.406 131.074,169.478 130.957 C 169.551 130.840,169.486 130.744,169.336 130.744 C 169.185 130.744,169.061 130.510,169.061 130.223 C 169.061 129.936,168.945 129.470,168.803 129.187 C 168.660 128.905,168.429 128.445,168.290 128.167 C 168.150 127.888,167.960 127.186,167.867 126.608 C 167.775 126.029,167.598 125.492,167.474 125.416 C 167.350 125.339,167.249 124.999,167.249 124.660 C 167.249 124.321,167.133 123.971,166.990 123.883 C 166.848 123.795,166.731 123.439,166.731 123.092 C 166.731 122.744,166.615 122.460,166.472 122.460 C 166.330 122.460,166.214 122.175,166.214 121.828 C 166.214 121.480,166.097 121.124,165.955 121.036 C 165.812 120.948,165.696 120.591,165.696 120.244 C 165.696 119.896,165.579 119.612,165.437 119.612 C 165.294 119.612,165.178 119.372,165.178 119.079 C 165.178 118.785,165.061 118.617,164.919 118.706 C 164.765 118.801,164.660 118.492,164.660 117.944 C 164.660 117.437,164.544 117.023,164.401 117.023 C 164.259 117.023,164.142 116.666,164.142 116.231 C 164.142 115.795,164.041 115.502,163.916 115.578 C 163.792 115.655,163.615 115.157,163.524 114.470 C 163.433 113.784,163.144 112.767,162.882 112.210 C 162.619 111.653,162.248 110.651,162.057 109.984 C 161.866 109.317,161.616 108.829,161.502 108.899 C 161.388 108.970,161.294 108.678,161.294 108.251 C 161.294 107.823,161.178 107.402,161.036 107.314 C 160.893 107.226,160.777 106.870,160.777 106.522 C 160.777 106.174,160.660 105.890,160.518 105.890 C 160.375 105.890,160.259 105.540,160.259 105.113 C 160.259 104.686,160.142 104.337,160.000 104.337 C 159.858 104.337,159.742 104.133,159.742 103.883 C 159.744 103.399,159.052 101.137,158.674 100.392 C 158.549 100.145,158.447 99.766,158.447 99.550 C 158.447 99.335,158.330 99.159,158.188 99.159 C 158.045 99.159,157.929 98.926,157.929 98.641 C 157.929 98.138,157.756 98.123,152.104 98.123 C 148.393 98.123,146.278 98.029,146.278 97.864 C 146.278 97.233,144.040 97.585,143.731 98.265 M198.835 102.946 L 198.835 108.220 203.236 108.220 C 206.281 108.220,207.638 108.308,207.638 108.507 C 207.638 108.664,207.817 108.725,208.036 108.640 C 208.262 108.554,208.497 108.653,208.581 108.872 C 208.662 109.083,208.848 109.256,208.994 109.256 C 209.377 109.256,210.242 110.316,210.076 110.584 C 210.000 110.708,210.060 110.809,210.211 110.809 C 210.641 110.809,210.574 117.829,210.136 118.672 C 209.944 119.042,209.728 119.286,209.655 119.213 C 209.583 119.141,209.376 119.259,209.196 119.476 C 209.016 119.693,208.708 119.871,208.512 119.871 C 208.316 119.871,208.155 119.987,208.155 120.129 C 208.155 120.272,207.887 120.388,207.560 120.388 C 207.232 120.388,206.850 120.503,206.710 120.642 C 206.571 120.782,205.382 120.911,204.070 120.929 C 202.757 120.946,201.683 121.065,201.683 121.192 C 201.683 121.320,201.246 121.428,200.712 121.432 C 198.889 121.448,198.835 121.592,198.835 126.436 L 198.835 130.744 199.855 130.744 C 200.416 130.744,200.937 130.844,201.012 130.965 C 201.087 131.086,201.995 131.257,203.030 131.343 C 204.066 131.430,204.953 131.622,205.002 131.770 C 205.051 131.918,205.257 132.039,205.458 132.039 C 205.660 132.039,205.825 132.155,205.825 132.298 C 205.825 132.440,205.974 132.557,206.156 132.557 C 206.339 132.557,206.654 132.787,206.857 133.069 C 207.128 133.445,207.279 133.496,207.428 133.263 C 207.559 133.056,207.631 133.149,207.634 133.528 C 207.636 133.848,207.733 134.110,207.851 134.110 C 208.060 134.110,208.613 136.414,208.860 138.317 C 208.930 138.851,209.091 139.288,209.218 139.288 C 209.346 139.288,209.450 139.922,209.450 140.697 C 209.450 141.471,209.554 142.170,209.681 142.248 C 209.809 142.327,209.979 142.829,210.060 143.364 C 210.410 145.681,210.556 146.278,210.773 146.278 C 210.899 146.278,211.003 146.570,211.003 146.926 C 211.003 147.282,211.120 147.573,211.262 147.573 C 211.405 147.573,211.521 147.806,211.521 148.091 C 211.521 148.375,211.638 148.608,211.780 148.608 C 211.922 148.608,212.039 148.841,212.039 149.126 C 212.039 149.630,212.211 149.644,218.252 149.644 L 224.466 149.644 224.440 148.803 C 224.405 147.660,224.087 146.656,223.778 146.716 C 223.639 146.743,223.575 146.422,223.636 146.004 C 223.703 145.550,223.632 145.243,223.460 145.243 C 223.301 145.243,223.172 144.945,223.172 144.580 C 223.172 144.204,223.059 143.987,222.913 144.078 C 222.759 144.173,222.654 143.865,222.654 143.316 C 222.654 142.809,222.537 142.395,222.395 142.395 C 222.252 142.395,222.136 141.994,222.136 141.504 C 222.136 141.014,222.019 140.541,221.877 140.453 C 221.735 140.365,221.618 139.915,221.618 139.454 C 221.618 138.992,221.508 138.504,221.374 138.369 C 221.239 138.234,221.101 137.570,221.066 136.893 C 221.032 136.217,220.926 135.663,220.831 135.663 C 220.735 135.663,220.586 134.877,220.497 133.916 C 220.343 132.234,219.949 130.785,219.422 129.968 C 219.284 129.754,219.205 129.375,219.246 129.126 C 219.287 128.877,219.197 128.673,219.045 128.673 C 218.894 128.673,218.770 128.554,218.770 128.409 C 218.770 128.064,216.014 125.307,215.669 125.307 C 215.524 125.307,215.405 125.191,215.405 125.049 C 215.405 124.906,215.536 124.790,215.698 124.790 C 215.859 124.790,216.179 124.573,216.410 124.309 C 216.640 124.044,217.082 123.748,217.391 123.650 C 217.701 123.553,218.429 123.012,219.009 122.449 C 219.956 121.530,220.108 121.283,220.048 120.757 C 220.038 120.675,220.271 120.399,220.566 120.144 C 220.860 119.889,221.100 119.548,221.100 119.387 C 221.100 119.226,221.217 119.094,221.359 119.094 C 221.502 119.094,221.618 118.868,221.618 118.591 C 221.618 118.315,221.735 118.017,221.877 117.929 C 222.019 117.841,222.136 117.251,222.136 116.619 C 222.136 115.987,222.254 115.469,222.398 115.469 C 222.563 115.469,222.652 114.219,222.637 112.104 C 222.624 110.241,222.506 108.738,222.374 108.738 C 222.243 108.738,222.136 108.214,222.136 107.573 C 222.136 106.932,222.019 106.408,221.877 106.408 C 221.735 106.408,221.618 106.058,221.618 105.631 C 221.618 105.204,221.529 104.854,221.420 104.854 C 221.311 104.854,221.018 104.384,220.769 103.808 C 220.020 102.080,217.346 99.665,216.654 100.093 C 216.474 100.204,216.432 100.159,216.545 99.975 C 216.661 99.787,216.537 99.676,216.212 99.676 C 215.927 99.676,215.622 99.560,215.534 99.417 C 215.446 99.275,214.915 99.159,214.354 99.159 C 213.792 99.159,213.333 99.042,213.333 98.900 C 213.333 98.757,213.210 98.641,213.059 98.641 C 212.908 98.641,212.867 98.786,212.968 98.964 C 213.114 99.223,213.081 99.223,212.802 98.964 C 212.610 98.786,212.010 98.641,211.469 98.641 C 210.928 98.641,210.485 98.524,210.485 98.382 C 210.485 98.220,208.932 98.123,206.343 98.123 C 203.721 98.123,202.201 98.027,202.201 97.861 C 202.201 97.707,201.504 97.614,200.518 97.635 L 198.835 97.672 198.835 102.946 M182.265 123.883 L 182.265 149.644 188.091 149.644 L 193.916 149.644 193.916 123.883 L 193.916 98.123 188.091 98.123 L 182.265 98.123 182.265 123.883 M231.456 123.888 L 231.456 149.654 237.217 149.584 L 242.977 149.515 243.043 123.819 L 243.109 98.123 237.283 98.123 L 231.456 98.123 231.456 123.888 M248.544 102.913 L 248.544 107.702 258.641 107.702 L 268.738 107.702 268.738 102.913 L 268.738 98.123 258.641 98.123 L 248.544 98.123 248.544 102.913 M248.544 122.463 L 248.544 127.385 257.670 127.317 L 266.796 127.249 266.867 122.395 L 266.937 117.540 257.740 117.540 L 248.544 117.540 248.544 122.463 M248.544 144.790 L 248.544 149.644 258.905 149.644 L 269.267 149.644 269.197 144.848 L 269.126 140.052 258.835 139.994 L 248.544 139.935 248.544 144.790 M212.702 185.936 C 212.476 186.388,212.359 186.970,212.442 187.230 C 212.524 187.490,212.467 187.702,212.315 187.702 C 212.163 187.702,212.039 187.994,212.039 188.350 C 212.039 188.706,211.948 188.997,211.836 188.997 C 211.725 188.997,211.608 189.317,211.575 189.709 C 211.543 190.100,211.401 190.460,211.260 190.507 C 211.119 190.554,211.003 190.933,211.003 191.348 C 211.003 191.764,210.887 192.104,210.744 192.104 C 210.602 192.104,210.485 192.395,210.485 192.751 C 210.485 193.107,210.369 193.398,210.227 193.398 C 210.084 193.398,209.968 193.748,209.968 194.175 C 209.968 194.602,209.851 194.951,209.709 194.951 C 209.566 194.951,209.450 195.320,209.450 195.771 C 209.450 196.222,209.369 196.510,209.270 196.411 C 209.085 196.226,208.484 198.050,208.237 199.547 C 208.161 200.010,207.966 200.390,207.803 200.392 C 207.641 200.394,207.683 200.509,207.896 200.647 C 208.155 200.815,208.177 200.900,207.961 200.902 C 207.783 200.904,207.638 201.081,207.638 201.294 C 207.638 201.508,207.521 201.683,207.379 201.683 C 207.236 201.683,207.120 202.032,207.120 202.460 C 207.120 202.887,207.003 203.236,206.861 203.236 C 206.718 203.236,206.602 203.586,206.602 204.013 C 206.602 204.440,206.485 204.790,206.343 204.790 C 206.201 204.790,206.084 205.081,206.084 205.437 C 206.084 205.793,205.968 206.084,205.825 206.084 C 205.683 206.084,205.566 206.434,205.566 206.861 C 205.566 207.288,205.450 207.638,205.307 207.638 C 205.165 207.638,205.049 207.987,205.049 208.414 C 205.049 208.841,204.925 209.191,204.774 209.191 C 204.624 209.191,204.559 209.287,204.632 209.404 C 204.704 209.521,204.613 209.905,204.430 210.258 C 204.247 210.612,204.126 211.098,204.161 211.340 C 204.197 211.582,204.120 211.780,203.990 211.780 C 203.860 211.780,203.754 212.064,203.754 212.412 C 203.754 212.759,203.638 213.116,203.495 213.204 C 203.353 213.292,203.236 213.590,203.236 213.866 C 203.236 214.143,203.120 214.369,202.977 214.369 C 202.835 214.369,202.718 214.662,202.718 215.020 C 202.718 215.378,202.584 215.931,202.419 216.249 C 201.775 217.496,201.683 217.746,201.683 218.249 C 201.683 218.536,201.566 218.770,201.424 218.770 C 201.282 218.770,201.165 219.120,201.165 219.547 C 201.165 219.974,201.063 220.324,200.939 220.324 C 200.725 220.324,200.270 222.154,200.312 222.848 C 200.322 223.026,200.227 223.172,200.101 223.172 C 199.974 223.172,199.871 223.521,199.871 223.948 C 199.871 224.375,199.754 224.725,199.612 224.725 C 199.469 224.725,199.353 225.016,199.353 225.372 C 199.353 225.728,199.236 226.019,199.094 226.019 C 198.951 226.019,198.835 226.369,198.835 226.796 C 198.835 227.223,198.718 227.573,198.576 227.573 C 198.434 227.573,198.317 227.864,198.317 228.220 C 198.317 228.576,198.201 228.867,198.058 228.867 C 197.916 228.867,197.799 229.217,197.799 229.644 C 197.799 230.071,197.683 230.421,197.540 230.421 C 197.398 230.421,197.282 230.770,197.282 231.197 C 197.282 231.625,197.165 231.974,197.023 231.974 C 196.880 231.974,196.764 232.258,196.764 232.606 C 196.764 232.954,196.637 233.316,196.482 233.412 C 196.327 233.508,196.258 233.806,196.329 234.074 C 196.399 234.343,196.351 234.628,196.222 234.708 C 196.093 234.787,195.987 235.370,195.987 236.002 L 195.987 237.152 202.460 237.152 C 208.149 237.152,208.932 237.103,208.932 236.748 C 208.932 236.526,209.049 236.417,209.191 236.505 C 209.338 236.596,209.450 236.378,209.450 236.002 C 209.450 235.638,209.563 235.340,209.701 235.340 C 209.839 235.340,209.936 234.909,209.916 234.384 C 209.896 233.854,210.015 233.382,210.183 233.326 C 210.349 233.271,210.485 233.001,210.485 232.726 C 210.485 232.451,210.591 232.024,210.719 231.776 C 210.848 231.529,211.092 230.803,211.262 230.162 C 211.432 229.521,211.679 228.791,211.809 228.540 C 211.940 228.289,212.120 227.386,212.209 226.534 C 212.299 225.681,212.471 224.984,212.594 224.984 C 212.716 224.984,212.816 224.693,212.816 224.337 C 212.816 223.981,212.932 223.689,213.074 223.689 C 213.217 223.689,213.333 223.347,213.333 222.928 C 213.333 222.509,213.450 222.094,213.592 222.006 C 213.735 221.918,213.853 221.591,213.855 221.279 C 213.859 220.660,214.425 218.887,214.709 218.602 C 214.807 218.505,214.887 217.920,214.887 217.303 C 214.887 216.686,215.003 216.181,215.146 216.181 C 215.288 216.181,215.405 215.955,215.405 215.679 C 215.405 215.402,215.510 215.111,215.638 215.032 C 215.766 214.953,215.953 214.188,216.052 213.334 C 216.151 212.479,216.337 211.780,216.466 211.780 C 216.594 211.780,216.701 211.227,216.703 210.550 C 216.706 209.661,216.776 209.428,216.958 209.709 C 217.148 210.003,217.210 209.894,217.213 209.256 C 217.215 208.793,217.333 208.414,217.476 208.414 C 217.618 208.414,217.735 208.006,217.735 207.508 C 217.735 207.010,217.851 206.602,217.994 206.602 C 218.136 206.602,218.252 206.252,218.252 205.825 C 218.252 205.398,218.344 205.049,218.456 205.049 C 218.568 205.049,218.688 204.678,218.723 204.224 C 218.757 203.771,218.886 203.276,219.008 203.124 C 219.131 202.972,219.229 202.503,219.227 202.082 C 219.225 201.661,219.354 201.272,219.515 201.219 C 219.675 201.166,219.806 200.840,219.806 200.496 C 219.806 199.085,220.244 200.013,220.519 202.006 C 220.976 205.319,221.139 206.084,221.388 206.084 C 221.514 206.084,221.618 206.441,221.618 206.876 C 221.618 207.338,221.726 207.601,221.877 207.508 C 222.031 207.413,222.136 207.721,222.136 208.270 C 222.136 208.776,222.252 209.191,222.395 209.191 C 222.537 209.191,222.654 209.599,222.654 210.097 C 222.654 210.595,222.770 211.003,222.913 211.003 C 223.055 211.003,223.172 211.294,223.172 211.650 C 223.172 212.006,223.288 212.298,223.430 212.298 C 223.573 212.298,223.689 212.647,223.689 213.074 C 223.689 213.502,223.806 213.851,223.948 213.851 C 224.091 213.851,224.207 214.266,224.207 214.773 C 224.207 215.279,224.299 215.637,224.411 215.568 C 224.522 215.499,224.614 215.655,224.614 215.915 C 224.614 216.346,220.174 217.016,219.689 216.658 C 219.460 216.489,218.787 217.608,218.778 218.172 C 218.774 218.484,218.654 218.812,218.511 218.900 C 218.369 218.988,218.252 219.337,218.252 219.676 C 218.252 220.016,218.136 220.365,217.994 220.453 C 217.851 220.541,217.735 220.949,217.735 221.359 C 217.735 221.770,217.618 222.177,217.476 222.265 C 217.333 222.353,217.217 222.703,217.217 223.042 C 217.217 223.381,217.100 223.731,216.958 223.819 C 216.816 223.907,216.699 224.438,216.699 224.999 L 216.699 226.019 222.395 226.019 L 228.091 226.019 228.091 226.882 C 228.091 227.357,228.172 227.826,228.271 227.926 C 228.462 228.117,228.536 228.415,228.782 229.968 C 228.866 230.502,229.037 230.939,229.160 230.939 C 229.284 230.939,229.385 231.237,229.385 231.601 C 229.385 231.977,229.497 232.194,229.644 232.104 C 229.800 232.007,229.903 232.355,229.903 232.979 C 229.903 233.549,230.019 234.087,230.162 234.175 C 230.304 234.263,230.421 234.612,230.421 234.951 C 230.421 235.291,230.537 235.640,230.680 235.728 C 230.822 235.816,230.939 236.173,230.939 236.520 L 230.939 237.152 237.706 237.152 L 244.473 237.152 244.331 235.580 C 244.250 234.686,244.010 233.811,243.776 233.552 C 243.550 233.302,243.437 233.025,243.525 232.936 C 243.614 232.848,243.503 232.592,243.278 232.367 C 243.054 232.143,242.935 231.791,243.013 231.585 C 243.092 231.379,242.981 231.035,242.767 230.820 C 242.552 230.605,242.438 230.195,242.513 229.907 C 242.590 229.614,242.523 229.385,242.360 229.385 C 242.201 229.385,242.071 229.094,242.071 228.738 C 242.071 228.382,241.955 228.091,241.812 228.091 C 241.670 228.091,241.553 227.741,241.553 227.314 C 241.553 226.887,241.437 226.537,241.294 226.537 C 241.152 226.537,241.036 226.246,241.036 225.890 C 241.036 225.534,240.919 225.243,240.777 225.243 C 240.634 225.243,240.518 225.017,240.518 224.740 C 240.518 224.464,240.412 224.172,240.283 224.093 C 240.154 224.013,240.106 223.728,240.176 223.459 C 240.247 223.191,240.177 222.893,240.023 222.797 C 239.868 222.701,239.741 222.410,239.741 222.150 C 239.741 221.890,239.572 221.352,239.366 220.954 C 239.160 220.557,239.050 220.136,239.122 220.019 C 239.195 219.902,239.130 219.806,238.980 219.806 C 238.829 219.806,238.706 219.624,238.706 219.402 C 238.706 219.148,238.586 219.071,238.382 219.193 C 238.195 219.305,238.223 219.184,238.447 218.907 C 238.743 218.541,238.758 218.401,238.511 218.318 C 238.333 218.258,238.188 217.928,238.188 217.584 C 238.188 217.239,238.071 216.958,237.929 216.958 C 237.786 216.958,237.670 216.674,237.670 216.326 C 237.670 215.978,237.553 215.622,237.411 215.534 C 237.269 215.446,237.152 215.148,237.152 214.871 C 237.152 214.595,237.048 214.369,236.922 214.369 C 236.795 214.369,236.630 213.990,236.556 213.528 C 236.350 212.240,236.234 211.811,236.038 211.615 C 235.939 211.516,235.858 211.170,235.858 210.846 C 235.858 210.522,235.741 210.185,235.599 210.097 C 235.456 210.009,235.340 209.653,235.340 209.305 C 235.340 208.958,235.223 208.673,235.081 208.673 C 234.939 208.673,234.822 208.382,234.822 208.026 C 234.822 207.670,234.706 207.379,234.563 207.379 C 234.421 207.379,234.304 207.081,234.304 206.716 C 234.304 206.340,234.192 206.123,234.045 206.214 C 233.891 206.309,233.786 206.001,233.786 205.452 C 233.786 204.945,233.670 204.531,233.528 204.531 C 233.385 204.531,233.269 204.239,233.269 203.883 C 233.269 203.528,233.152 203.236,233.010 203.236 C 232.867 203.236,232.751 202.887,232.751 202.460 C 232.751 202.032,232.634 201.683,232.492 201.683 C 232.350 201.683,232.228 201.421,232.222 201.100 C 232.215 200.780,232.035 200.052,231.820 199.482 C 231.606 198.913,231.396 198.330,231.353 198.188 C 231.177 197.599,230.886 196.866,230.661 196.444 C 230.529 196.196,230.421 195.759,230.421 195.473 C 230.421 195.186,230.304 194.951,230.162 194.951 C 230.019 194.951,229.903 194.602,229.903 194.175 C 229.903 193.748,229.786 193.398,229.644 193.398 C 229.502 193.398,229.385 193.107,229.385 192.751 C 229.385 192.395,229.269 192.104,229.126 192.104 C 228.984 192.104,228.867 191.754,228.867 191.327 C 228.867 190.900,228.764 190.550,228.638 190.550 C 228.512 190.550,228.330 190.029,228.235 189.391 C 228.139 188.754,227.951 188.164,227.817 188.081 C 227.683 187.998,227.573 187.646,227.573 187.299 C 227.573 186.951,227.456 186.667,227.314 186.667 C 227.172 186.667,227.055 186.434,227.055 186.149 C 227.055 185.646,226.882 185.631,221.245 185.631 C 217.651 185.631,215.374 185.532,215.275 185.372 C 214.865 184.709,213.124 185.090,212.702 185.936 M103.819 211.392 L 103.819 237.152 109.644 237.152 L 115.469 237.152 115.469 211.392 L 115.469 185.631 109.644 185.631 L 103.819 185.631 103.819 211.392 M120.906 190.809 L 120.906 195.987 121.618 196.000 C 123.427 196.033,125.704 196.325,125.782 196.533 C 125.830 196.660,126.186 196.764,126.575 196.764 C 126.963 196.764,127.531 196.997,127.837 197.282 C 128.142 197.566,128.518 197.799,128.671 197.799 C 128.824 197.799,129.343 198.178,129.825 198.641 C 130.307 199.104,131.062 199.803,131.504 200.194 C 131.945 200.586,132.217 200.908,132.108 200.910 C 131.999 200.912,132.026 201.000,132.168 201.104 C 132.549 201.384,133.074 202.393,133.074 202.844 C 133.074 203.060,133.191 203.236,133.333 203.236 C 133.476 203.236,133.592 203.644,133.592 204.142 C 133.592 204.641,133.709 205.049,133.851 205.049 C 133.994 205.049,134.110 205.689,134.110 206.472 C 134.110 207.256,134.227 207.896,134.369 207.896 C 134.534 207.896,134.628 210.140,134.628 214.110 C 134.628 218.080,134.534 220.324,134.369 220.324 C 134.227 220.324,134.110 220.519,134.110 220.758 C 134.110 221.384,133.519 222.983,133.139 223.384 C 132.828 223.713,132.713 224.098,132.791 224.550 C 132.812 224.667,132.725 224.699,132.598 224.621 C 132.471 224.542,132.159 224.708,131.904 224.990 C 131.649 225.271,131.297 225.502,131.120 225.502 C 130.944 225.502,130.730 225.684,130.644 225.906 C 130.559 226.129,130.359 226.231,130.199 226.132 C 130.040 226.034,129.817 226.103,129.704 226.285 C 129.592 226.468,129.141 226.607,128.702 226.595 C 128.264 226.582,127.838 226.681,127.756 226.814 C 127.674 226.946,126.682 227.055,125.551 227.055 C 124.353 227.055,123.495 227.163,123.495 227.314 C 123.495 227.456,122.913 227.573,122.201 227.573 L 120.906 227.573 120.906 232.621 L 120.906 237.670 121.668 237.670 C 122.086 237.670,122.501 237.553,122.589 237.411 C 122.677 237.269,123.784 237.152,125.049 237.152 C 126.450 237.152,127.417 237.040,127.525 236.866 C 127.649 236.666,127.770 236.685,127.925 236.930 C 128.051 237.129,128.149 237.157,128.151 236.994 C 128.154 236.821,128.998 236.646,130.291 236.551 C 132.730 236.373,133.246 236.290,133.498 236.038 C 133.597 235.939,133.944 235.858,134.267 235.858 C 134.591 235.858,134.928 235.741,135.016 235.599 C 135.104 235.456,135.461 235.340,135.808 235.340 C 136.156 235.340,136.440 235.223,136.440 235.081 C 136.440 234.939,136.609 234.822,136.816 234.822 C 137.022 234.822,137.310 234.618,137.455 234.369 C 137.600 234.120,137.722 234.002,137.727 234.107 C 137.740 234.419,140.324 232.167,140.324 231.845 C 140.324 231.745,140.644 231.354,141.036 230.975 C 141.427 230.596,141.781 230.129,141.822 229.937 C 141.862 229.746,142.069 229.415,142.281 229.203 C 142.833 228.651,143.438 227.408,143.247 227.217 C 143.158 227.128,143.221 227.055,143.387 227.055 C 143.553 227.055,143.689 226.822,143.689 226.537 C 143.689 226.252,143.806 226.019,143.948 226.019 C 144.091 226.019,144.207 225.786,144.207 225.502 C 144.207 225.217,144.324 224.984,144.466 224.984 C 144.608 224.984,144.725 224.751,144.725 224.466 C 144.725 224.181,144.841 223.948,144.984 223.948 C 145.126 223.948,145.243 223.592,145.243 223.156 C 145.243 222.721,145.336 222.422,145.450 222.492 C 145.564 222.563,145.807 222.075,145.989 221.407 C 146.172 220.740,146.420 219.961,146.541 219.676 C 147.386 217.684,147.359 202.201,146.511 202.201 C 146.383 202.201,146.278 201.851,146.278 201.424 C 146.278 200.997,146.162 200.647,146.019 200.647 C 145.877 200.647,145.761 200.356,145.761 200.000 C 145.761 199.644,145.644 199.353,145.502 199.353 C 145.359 199.353,145.243 199.120,145.243 198.835 C 145.243 198.550,145.126 198.317,144.984 198.317 C 144.841 198.317,144.725 198.084,144.725 197.799 C 144.725 197.515,144.622 197.282,144.496 197.282 C 144.370 197.282,144.197 197.078,144.111 196.828 C 143.855 196.084,142.893 194.607,142.368 194.151 C 142.098 193.917,141.877 193.649,141.877 193.556 C 141.877 193.355,139.102 190.550,138.903 190.550 C 138.827 190.550,138.400 190.201,137.953 189.773 C 137.506 189.346,136.983 188.997,136.790 188.997 C 136.598 188.997,136.440 188.873,136.440 188.723 C 136.440 188.572,136.331 188.516,136.198 188.598 C 136.065 188.680,135.537 188.513,135.025 188.225 C 134.513 187.938,133.865 187.702,133.584 187.702 C 133.304 187.702,133.074 187.586,133.074 187.443 C 133.074 187.301,132.782 187.184,132.424 187.184 C 132.066 187.184,131.541 187.068,131.259 186.926 C 130.976 186.783,130.513 186.550,130.230 186.408 C 129.947 186.265,129.365 186.149,128.936 186.149 C 128.506 186.149,128.155 186.032,128.155 185.890 C 128.155 185.730,126.775 185.631,124.531 185.631 L 120.906 185.631 120.906 190.809 M154.045 211.392 L 154.045 237.152 159.871 237.152 L 165.696 237.152 165.696 211.392 L 165.696 185.631 159.871 185.631 L 154.045 185.631 154.045 211.392 M171.133 190.550 L 171.133 195.469 181.359 195.469 L 191.586 195.469 191.586 190.550 L 191.586 185.631 181.359 185.631 L 171.133 185.631 171.133 190.550 M251.392 211.392 L 251.392 237.152 257.217 237.152 L 263.042 237.152 263.042 211.392 L 263.042 185.631 257.217 185.631 L 251.392 185.631 251.392 211.392 M268.479 190.801 L 268.479 195.987 269.061 196.002 C 270.870 196.048,273.042 196.319,273.256 196.526 C 273.391 196.657,273.770 196.764,274.097 196.764 C 274.425 196.764,274.693 196.880,274.693 197.023 C 274.693 197.165,274.926 197.282,275.210 197.282 C 275.495 197.282,275.728 197.398,275.728 197.540 C 275.728 197.683,275.907 197.799,276.125 197.799 C 276.344 197.799,277.334 198.611,278.326 199.603 C 279.318 200.595,280.129 201.585,280.129 201.803 C 280.129 202.022,280.246 202.201,280.388 202.201 C 280.531 202.201,280.647 202.427,280.647 202.703 C 280.647 202.980,280.753 203.271,280.883 203.351 C 281.013 203.432,281.086 203.701,281.046 203.949 C 281.006 204.198,281.064 204.578,281.175 204.794 C 281.286 205.010,281.410 205.767,281.450 206.477 C 281.490 207.186,281.614 207.830,281.726 207.908 C 282.078 208.152,282.019 220.116,281.665 220.335 C 281.489 220.443,281.406 220.864,281.473 221.315 C 281.542 221.790,281.478 222.085,281.312 222.055 C 281.160 222.029,281.038 222.181,281.041 222.395 C 281.048 222.899,279.666 224.984,279.325 224.984 C 279.181 224.984,279.135 225.100,279.223 225.243 C 279.314 225.390,279.097 225.502,278.721 225.502 C 278.356 225.502,278.058 225.618,278.058 225.761 C 278.058 225.903,277.825 226.019,277.540 226.019 C 277.256 226.019,277.023 226.136,277.023 226.278 C 277.023 226.421,276.615 226.537,276.117 226.537 C 275.618 226.537,275.210 226.654,275.210 226.796 C 275.210 226.948,274.304 227.055,273.010 227.055 C 271.715 227.055,270.809 227.162,270.809 227.314 C 270.809 227.456,270.281 227.573,269.635 227.573 L 268.461 227.573 268.490 232.621 L 268.519 237.670 269.260 237.670 C 269.668 237.670,270.074 237.553,270.162 237.411 C 270.251 237.267,271.454 237.152,272.880 237.152 C 274.307 237.152,275.509 237.038,275.599 236.893 C 275.687 236.751,276.516 236.634,277.442 236.634 C 278.367 236.634,279.069 236.545,279.001 236.435 C 278.934 236.326,279.350 236.281,279.926 236.336 C 280.653 236.406,280.919 236.347,280.796 236.147 C 280.676 235.954,280.929 235.858,281.553 235.858 C 282.112 235.858,282.426 235.753,282.330 235.599 C 282.239 235.452,282.458 235.340,282.836 235.340 C 283.549 235.340,284.412 234.935,285.046 234.302 C 285.261 234.088,285.757 233.748,286.149 233.547 C 286.540 233.346,286.861 233.007,286.861 232.793 C 286.861 232.580,286.933 232.478,287.021 232.566 C 287.218 232.762,287.896 232.117,287.896 231.734 C 287.896 231.581,288.020 231.456,288.171 231.456 C 288.321 231.456,288.373 231.340,288.285 231.197 C 288.197 231.055,288.319 230.939,288.556 230.939 C 288.840 230.939,288.935 230.801,288.833 230.537 C 288.745 230.306,288.788 230.202,288.935 230.293 C 289.076 230.380,289.191 230.254,289.191 230.013 C 289.191 229.772,289.404 229.387,289.664 229.157 C 289.924 228.926,290.302 228.359,290.503 227.896 C 290.705 227.434,290.971 227.055,291.094 227.055 C 291.217 227.055,291.254 226.889,291.176 226.686 C 291.098 226.482,291.202 226.177,291.407 226.007 C 291.612 225.836,291.780 225.537,291.780 225.340 C 291.780 225.144,291.896 224.984,292.039 224.984 C 292.181 224.984,292.298 224.758,292.298 224.481 C 292.298 224.205,292.421 223.903,292.572 223.809 C 292.723 223.716,292.812 223.381,292.771 223.064 C 292.729 222.747,292.897 222.180,293.144 221.803 C 293.390 221.427,293.592 220.823,293.592 220.462 C 293.592 220.101,293.709 219.806,293.851 219.806 C 293.994 219.806,294.110 219.363,294.110 218.822 C 294.110 218.281,294.231 217.718,294.378 217.570 C 294.943 217.005,294.411 202.201,293.825 202.201 C 293.697 202.201,293.592 201.851,293.592 201.424 C 293.592 200.997,293.476 200.647,293.333 200.647 C 293.191 200.647,293.074 200.410,293.074 200.119 C 293.074 199.829,292.846 199.144,292.568 198.598 C 292.289 198.052,292.134 197.532,292.223 197.443 C 292.311 197.354,292.248 197.282,292.082 197.282 C 291.916 197.282,291.780 197.133,291.780 196.950 C 291.780 196.768,291.547 196.451,291.262 196.246 C 290.977 196.041,290.744 195.712,290.744 195.516 C 290.744 195.320,290.424 194.847,290.032 194.465 C 289.641 194.083,289.191 193.541,289.033 193.261 C 288.875 192.980,288.623 192.751,288.472 192.751 C 288.322 192.751,288.101 192.645,287.983 192.515 C 287.857 192.378,287.903 192.357,288.091 192.466 C 288.269 192.568,288.414 192.573,288.414 192.477 C 288.414 192.239,286.553 190.550,286.290 190.550 C 286.174 190.550,285.705 190.193,285.248 189.756 C 284.791 189.319,284.093 188.896,283.697 188.817 C 283.301 188.738,282.977 188.571,282.977 188.447 C 282.977 188.322,282.744 188.220,282.460 188.220 C 282.175 188.220,281.942 188.104,281.942 187.961 C 281.942 187.819,281.585 187.702,281.150 187.702 C 280.688 187.702,280.424 187.594,280.518 187.443 C 280.611 187.292,280.348 187.184,279.886 187.184 C 279.450 187.184,279.094 187.068,279.094 186.926 C 279.094 186.783,278.744 186.667,278.317 186.667 C 277.890 186.667,277.540 186.550,277.540 186.408 C 277.540 186.265,277.140 186.149,276.650 186.149 C 276.160 186.149,275.693 186.043,275.614 185.914 C 275.534 185.785,273.896 185.665,271.974 185.647 L 268.479 185.614 268.479 190.801 M171.133 209.983 L 171.133 214.893 180.259 214.825 L 189.385 214.757 189.456 209.897 L 189.526 205.037 180.329 205.055 L 171.133 205.073 171.133 209.983 M171.133 232.362 L 171.133 237.152 181.489 237.152 L 191.845 237.152 191.845 232.362 L 191.845 227.573 181.489 227.573 L 171.133 227.573 171.133 232.362 " stroke="none" fill="#8c0404" fill-rule="evenodd"></path><path id="path1" d="M84.466 10.534 C 84.715 10.600,85.123 10.600,85.372 10.534 C 85.621 10.469,85.417 10.416,84.919 10.416 C 84.421 10.416,84.217 10.469,84.466 10.534 M114.484 10.549 C 116.007 10.595,118.570 10.595,120.180 10.549 C 121.790 10.504,120.544 10.467,117.411 10.466 C 114.278 10.466,112.961 10.503,114.484 10.549 M154.872 10.549 C 156.395 10.595,158.958 10.595,160.568 10.549 C 162.178 10.504,160.932 10.467,157.799 10.466 C 154.667 10.466,153.350 10.503,154.872 10.549 M196.584 10.549 C 198.122 10.595,200.569 10.595,202.021 10.549 C 203.472 10.503,202.214 10.465,199.223 10.466 C 196.233 10.466,195.045 10.503,196.584 10.549 M215.875 10.550 C 218.625 10.592,223.052 10.592,225.713 10.550 C 228.373 10.508,226.123 10.473,220.712 10.473 C 215.301 10.474,213.124 10.508,215.875 10.550 M241.373 10.549 C 242.912 10.595,245.358 10.595,246.810 10.549 C 248.262 10.503,247.003 10.465,244.013 10.466 C 241.023 10.466,239.835 10.503,241.373 10.549 M292.089 10.549 C 293.612 10.595,296.175 10.595,297.785 10.549 C 299.395 10.504,298.149 10.467,295.016 10.466 C 291.883 10.466,290.566 10.503,292.089 10.549 M309.246 10.680 C 309.178 10.858,309.153 22.479,309.190 36.505 L 309.258 62.006 309.322 36.316 L 309.385 10.625 315.146 10.550 L 320.906 10.475 315.138 10.415 C 310.716 10.370,309.340 10.432,309.246 10.680 M331.603 10.550 C 334.353 10.592,338.780 10.592,341.441 10.550 C 344.102 10.508,341.851 10.473,336.440 10.473 C 331.029 10.474,328.852 10.508,331.603 10.550 M289.315 36.246 C 289.315 50.272,289.347 56.010,289.385 48.997 C 289.423 41.984,289.423 30.508,289.385 23.495 C 289.347 16.482,289.315 22.220,289.315 36.246 M253.640 140.000 C 256.371 140.042,260.915 140.042,263.737 140.000 C 266.559 139.958,264.324 139.924,258.770 139.924 C 253.217 139.923,250.908 139.958,253.640 140.000 " stroke="none" fill="#900404" fill-rule="evenodd"></path><path id="path2" d="M84.466 10.534 C 84.715 10.600,85.123 10.600,85.372 10.534 C 85.621 10.469,85.417 10.416,84.919 10.416 C 84.421 10.416,84.217 10.469,84.466 10.534 M114.484 10.549 C 116.007 10.595,118.570 10.595,120.180 10.549 C 121.790 10.504,120.544 10.467,117.411 10.466 C 114.278 10.466,112.961 10.503,114.484 10.549 M154.872 10.549 C 156.395 10.595,158.958 10.595,160.568 10.549 C 162.178 10.504,160.932 10.467,157.799 10.466 C 154.667 10.466,153.350 10.503,154.872 10.549 M196.584 10.549 C 198.122 10.595,200.569 10.595,202.021 10.549 C 203.472 10.503,202.214 10.465,199.223 10.466 C 196.233 10.466,195.045 10.503,196.584 10.549 M215.875 10.550 C 218.625 10.592,223.052 10.592,225.713 10.550 C 228.373 10.508,226.123 10.473,220.712 10.473 C 215.301 10.474,213.124 10.508,215.875 10.550 M241.373 10.549 C 242.912 10.595,245.358 10.595,246.810 10.549 C 248.262 10.503,247.003 10.465,244.013 10.466 C 241.023 10.466,239.835 10.503,241.373 10.549 M292.089 10.549 C 293.612 10.595,296.175 10.595,297.785 10.549 C 299.395 10.504,298.149 10.467,295.016 10.466 C 291.883 10.466,290.566 10.503,292.089 10.549 M309.246 10.680 C 309.178 10.858,309.153 22.479,309.190 36.505 L 309.258 62.006 309.322 36.316 L 309.385 10.625 315.146 10.550 L 320.906 10.475 315.138 10.415 C 310.716 10.370,309.340 10.432,309.246 10.680 M331.603 10.550 C 334.353 10.592,338.780 10.592,341.441 10.550 C 344.102 10.508,341.851 10.473,336.440 10.473 C 331.029 10.474,328.852 10.508,331.603 10.550 M289.315 36.246 C 289.315 50.272,289.347 56.010,289.385 48.997 C 289.423 41.984,289.423 30.508,289.385 23.495 C 289.347 16.482,289.315 22.220,289.315 36.246 M253.640 140.000 C 256.371 140.042,260.915 140.042,263.737 140.000 C 266.559 139.958,264.324 139.924,258.770 139.924 C 253.217 139.923,250.908 139.958,253.640 140.000 " stroke="none" fill="#900404" fill-rule="evenodd"></path><path id="path3" d="M84.466 10.534 C 84.715 10.600,85.123 10.600,85.372 10.534 C 85.621 10.469,85.417 10.416,84.919 10.416 C 84.421 10.416,84.217 10.469,84.466 10.534 M114.484 10.549 C 116.007 10.595,118.570 10.595,120.180 10.549 C 121.790 10.504,120.544 10.467,117.411 10.466 C 114.278 10.466,112.961 10.503,114.484 10.549 M154.872 10.549 C 156.395 10.595,158.958 10.595,160.568 10.549 C 162.178 10.504,160.932 10.467,157.799 10.466 C 154.667 10.466,153.350 10.503,154.872 10.549 M196.584 10.549 C 198.122 10.595,200.569 10.595,202.021 10.549 C 203.472 10.503,202.214 10.465,199.223 10.466 C 196.233 10.466,195.045 10.503,196.584 10.549 M215.875 10.550 C 218.625 10.592,223.052 10.592,225.713 10.550 C 228.373 10.508,226.123 10.473,220.712 10.473 C 215.301 10.474,213.124 10.508,215.875 10.550 M241.373 10.549 C 242.912 10.595,245.358 10.595,246.810 10.549 C 248.262 10.503,247.003 10.465,244.013 10.466 C 241.023 10.466,239.835 10.503,241.373 10.549 M292.089 10.549 C 293.612 10.595,296.175 10.595,297.785 10.549 C 299.395 10.504,298.149 10.467,295.016 10.466 C 291.883 10.466,290.566 10.503,292.089 10.549 M309.246 10.680 C 309.178 10.858,309.153 22.479,309.190 36.505 L 309.258 62.006 309.322 36.316 L 309.385 10.625 315.146 10.550 L 320.906 10.475 315.138 10.415 C 310.716 10.370,309.340 10.432,309.246 10.680 M331.603 10.550 C 334.353 10.592,338.780 10.592,341.441 10.550 C 344.102 10.508,341.851 10.473,336.440 10.473 C 331.029 10.474,328.852 10.508,331.603 10.550 M289.315 36.246 C 289.315 50.272,289.347 56.010,289.385 48.997 C 289.423 41.984,289.423 30.508,289.385 23.495 C 289.347 16.482,289.315 22.220,289.315 36.246 M253.640 140.000 C 256.371 140.042,260.915 140.042,263.737 140.000 C 266.559 139.958,264.324 139.924,258.770 139.924 C 253.217 139.923,250.908 139.958,253.640 140.000 " stroke="none" fill="#900404" fill-rule="evenodd"></path><path id="path4" d="M84.466 10.534 C 84.715 10.600,85.123 10.600,85.372 10.534 C 85.621 10.469,85.417 10.416,84.919 10.416 C 84.421 10.416,84.217 10.469,84.466 10.534 M114.484 10.549 C 116.007 10.595,118.570 10.595,120.180 10.549 C 121.790 10.504,120.544 10.467,117.411 10.466 C 114.278 10.466,112.961 10.503,114.484 10.549 M154.872 10.549 C 156.395 10.595,158.958 10.595,160.568 10.549 C 162.178 10.504,160.932 10.467,157.799 10.466 C 154.667 10.466,153.350 10.503,154.872 10.549 M196.584 10.549 C 198.122 10.595,200.569 10.595,202.021 10.549 C 203.472 10.503,202.214 10.465,199.223 10.466 C 196.233 10.466,195.045 10.503,196.584 10.549 M215.875 10.550 C 218.625 10.592,223.052 10.592,225.713 10.550 C 228.373 10.508,226.123 10.473,220.712 10.473 C 215.301 10.474,213.124 10.508,215.875 10.550 M241.373 10.549 C 242.912 10.595,245.358 10.595,246.810 10.549 C 248.262 10.503,247.003 10.465,244.013 10.466 C 241.023 10.466,239.835 10.503,241.373 10.549 M292.089 10.549 C 293.612 10.595,296.175 10.595,297.785 10.549 C 299.395 10.504,298.149 10.467,295.016 10.466 C 291.883 10.466,290.566 10.503,292.089 10.549 M309.246 10.680 C 309.178 10.858,309.153 22.479,309.190 36.505 L 309.258 62.006 309.322 36.316 L 309.385 10.625 315.146 10.550 L 320.906 10.475 315.138 10.415 C 310.716 10.370,309.340 10.432,309.246 10.680 M331.603 10.550 C 334.353 10.592,338.780 10.592,341.441 10.550 C 344.102 10.508,341.851 10.473,336.440 10.473 C 331.029 10.474,328.852 10.508,331.603 10.550 M289.315 36.246 C 289.315 50.272,289.347 56.010,289.385 48.997 C 289.423 41.984,289.423 30.508,289.385 23.495 C 289.347 16.482,289.315 22.220,289.315 36.246 M253.640 140.000 C 256.371 140.042,260.915 140.042,263.737 140.000 C 266.559 139.958,264.324 139.924,258.770 139.924 C 253.217 139.923,250.908 139.958,253.640 140.000 " stroke="none" fill="#900404" fill-rule="evenodd"></path></g></svg>