<!DOCTYPE svg PUBLIC "-//W3C//DTD SVG 20010904//EN" "http://www.w3.org/TR/2001/REC-SVG-20010904/DTD/svg10.dtd">
<svg version="1.0" xmlns="http://www.w3.org/2000/svg" width="822px" height="532px" viewBox="0 0 8220 5320" preserveAspectRatio="xMidYMid meet">
<g id="layer101" fill="#8b0000" stroke="none">
 <path d="M2140 4345 l0 -525 115 0 115 0 0 525 0 525 -115 0 -115 0 0 -525z"/>
 <path d="M2490 4777 l0 -94 78 -5 c133 -8 183 -46 203 -153 15 -77 5 -273 -16 -343 -29 -95 -124 -162 -232 -162 l-33 0 0 -100 0 -100 58 0 c66 0 191 36 254 73 58 34 130 112 162 176 40 78 56 155 56 266 0 116 -16 190 -64 290 -87 181 -153 223 -378 240 l-88 7 0 -95z"/>
 <path d="M3170 4345 l0 -525 115 0 115 0 0 525 0 525 -115 0 -115 0 0 -525z"/>
 <path d="M3520 4775 l0 -95 210 0 210 0 0 95 0 95 -210 0 -210 0 0 -95z"/>
 <path d="M4030 4863 c0 -5 79 -241 177 -526 l178 -518 135 3 135 3 177 505 c98 278 181 513 184 523 5 16 -5 17 -125 17 l-130 0 -36 -115 -36 -115 -116 0 c-88 0 -114 -3 -110 -12 2 -7 14 -48 27 -90 l23 -78 53 0 c29 0 55 -4 58 -9 3 -4 -12 -61 -34 -126 -22 -65 -45 -145 -51 -179 -16 -91 -21 -96 -34 -36 -6 30 -58 214 -115 408 l-103 352 -129 0 c-70 0 -128 -3 -128 -7z"/>
 <path d="M5170 4345 l0 -525 115 0 115 0 0 525 0 525 -115 0 -115 0 0 -525z"/>
 <path d="M5520 4777 l0 -94 78 -5 c133 -8 183 -46 203 -153 15 -77 5 -273 -16 -343 -29 -95 -124 -162 -232 -162 l-33 0 0 -100 0 -100 58 0 c66 0 191 36 254 73 58 34 130 112 162 176 40 78 56 155 56 266 0 116 -16 190 -64 290 -87 181 -153 223 -378 240 l-88 7 0 -95z"/>
 <path d="M3520 4315 l0 -95 185 0 185 0 0 95 0 95 -185 0 -185 0 0 -95z"/>
 <path d="M3520 3915 l0 -95 205 0 205 0 0 95 0 95 -205 0 -205 0 0 -95z"/>
 <path d="M2610 3063 c0 -5 79 -241 177 -526 l178 -518 135 3 135 3 177 505 c98 278 181 513 184 523 5 16 -5 17 -125 17 l-130 0 -36 -115 -36 -115 -116 0 c-88 0 -114 -3 -110 -12 2 -7 14 -48 27 -90 l23 -78 53 0 c29 0 55 -4 58 -9 3 -4 -12 -61 -34 -126 -22 -65 -45 -145 -51 -179 -16 -91 -21 -96 -34 -36 -6 30 -58 214 -115 408 l-103 352 -129 0 c-70 0 -128 -3 -128 -7z"/>
 <path d="M3750 2545 l0 -525 115 0 115 0 0 525 0 525 -115 0 -115 0 0 -525z"/>
 <path d="M4350 3026 c-10 -25 -24 -73 -30 -108 -26 -148 -31 -165 -58 -191 -29 -27 -87 -47 -139 -47 l-33 0 0 -52 c0 -29 3 -69 6 -89 l6 -37 83 -4 c91 -5 129 -22 145 -64 14 -36 12 -144 -3 -174 -18 -36 -77 -53 -164 -47 l-73 5 0 -100 0 -101 133 6 c203 8 273 40 319 144 30 68 31 200 2 263 -25 54 -75 106 -117 123 l-31 13 38 22 c50 30 81 99 101 232 14 88 32 147 72 238 4 9 -23 12 -116 12 l-122 0 -19 -44z"/>
 <path d="M4760 2545 l0 -525 115 0 115 0 0 525 0 525 -115 0 -115 0 0 -525z"/>
 <path d="M5110 2975 l0 -95 210 0 210 0 0 95 0 95 -210 0 -210 0 0 -95z"/>
 <path d="M5110 2515 l0 -95 185 0 185 0 0 95 0 95 -185 0 -185 0 0 -95z"/>
 <path d="M5110 2115 l0 -95 205 0 205 0 0 95 0 95 -205 0 -205 0 0 -95z"/>
 <path d="M369 1290 c-151 -26 -251 -132 -300 -318 -29 -110 -29 -325 0 -436 45 -172 139 -272 300 -320 30 -9 72 -16 93 -16 l38 0 0 95 0 94 -37 10 c-64 18 -109 56 -140 118 -26 54 -28 67 -31 205 -3 116 0 159 13 205 22 75 81 137 148 155 l47 12 0 97 0 97 -31 6 c-35 7 -36 7 -100 -4z"/>
 <path d="M620 1190 c0 -94 1 -100 20 -100 33 0 96 -37 120 -69 24 -35 61 -136 53 -145 -4 -3 -46 -6 -95 -6 l-88 0 0 -90 0 -90 201 0 202 0 -6 68 c-4 37 -7 167 -7 290 l0 222 -85 0 -85 0 0 -54 c0 -30 -4 -57 -8 -60 -5 -3 -29 15 -53 41 -40 42 -126 93 -156 93 -10 0 -13 -27 -13 -100z"/>
 <path d="M7520 1280 c-98 -17 -174 -64 -215 -135 -28 -48 -62 -192 -49 -205 5 -4 59 -10 120 -12 l112 -3 12 52 c14 65 41 100 83 108 71 14 67 8 67 111 l0 94 -42 -1 c-24 -1 -63 -5 -88 -9z"/>
 <path d="M7772 1193 l3 -96 38 -11 c58 -17 87 -50 87 -100 0 -82 -41 -109 -247 -159 -77 -19 -168 -47 -202 -62 -72 -33 -131 -94 -149 -153 -16 -52 -14 -178 2 -225 40 -111 135 -176 271 -185 l75 -5 0 92 c0 91 0 91 -25 91 -98 0 -139 117 -62 174 41 30 48 32 197 66 221 50 295 91 347 194 35 68 43 172 19 244 -22 64 -88 139 -155 175 -40 23 -155 56 -194 57 -4 0 -6 -43 -5 -97z"/>
 <path d="M1160 1263 c0 -5 79 -241 177 -526 l178 -518 135 3 135 3 177 505 c98 278 181 513 184 523 5 16 -5 17 -125 17 l-130 0 -36 -115 -36 -115 -116 0 c-88 0 -114 -3 -110 -12 2 -7 14 -48 27 -90 l23 -78 53 0 c29 0 55 -4 58 -9 3 -4 -12 -61 -34 -126 -22 -65 -45 -145 -51 -179 -16 -91 -21 -96 -34 -36 -6 30 -58 214 -115 408 l-103 352 -129 0 c-70 0 -128 -3 -128 -7z"/>
 <path d="M2300 745 l0 -525 115 0 115 0 0 525 0 525 -115 0 -115 0 0 -525z"/>
 <path d="M2650 1175 l0 -95 190 0 190 0 0 95 0 95 -190 0 -190 0 0 -95z"/>
 <path d="M3130 745 l0 -525 115 0 115 0 0 525 0 525 -115 0 -115 0 0 -525z"/>
 <path d="M3480 1175 l0 -95 190 0 190 0 0 95 0 95 -190 0 -190 0 0 -95z"/>
 <path d="M3980 745 l0 -525 115 0 115 0 0 525 0 525 -115 0 -115 0 0 -525z"/>
 <path d="M4330 1175 l0 -95 210 0 210 0 0 95 0 95 -210 0 -210 0 0 -95z"/>
 <path d="M4900 745 l0 -525 115 0 115 0 0 525 0 525 -115 0 -115 0 0 -525z"/>
 <path d="M5500 1226 c-10 -25 -24 -73 -30 -108 -26 -148 -31 -165 -58 -191 -29 -27 -87 -47 -139 -47 l-33 0 0 -52 c0 -29 3 -69 6 -89 l6 -37 83 -4 c91 -5 129 -22 145 -64 14 -36 12 -144 -3 -174 -18 -36 -77 -53 -164 -47 l-73 5 0 -100 0 -101 133 6 c203 8 273 40 319 144 30 68 31 200 2 263 -25 54 -75 106 -117 123 l-31 13 38 22 c50 30 81 99 101 232 14 88 32 147 72 238 4 9 -23 12 -116 12 l-122 0 -19 -44z"/>
 <path d="M5950 745 l0 -525 115 0 115 0 0 525 0 525 -115 0 -115 0 0 -525z"/>
 <path d="M6360 745 l0 -525 115 0 115 0 0 525 0 525 -115 0 -115 0 0 -525z"/>
 <path d="M6710 1175 l0 -95 210 0 210 0 0 95 0 95 -210 0 -210 0 0 -95z"/>
 <path d="M4330 715 l0 -95 185 0 185 0 0 95 0 95 -185 0 -185 0 0 -95z"/>
 <path d="M6710 715 l0 -95 185 0 185 0 0 95 0 95 -185 0 -185 0 0 -95z"/>
 <path d="M777 512 c-20 -58 -61 -97 -117 -112 l-40 -11 0 -94 c0 -92 1 -95 23 -95 37 1 163 55 216 94 61 45 103 96 136 167 35 77 34 89 -13 89 -22 0 -72 3 -113 6 l-74 6 -18 -50z"/>
 <path d="M7886 492 c-7 -54 -35 -88 -82 -101 l-29 -7 -3 -94 -3 -93 58 6 c153 14 269 123 289 271 l6 44 -43 6 c-24 3 -76 8 -115 11 l-71 6 -7 -49z"/>
 <path d="M4330 315 l0 -95 205 0 205 0 0 95 0 95 -205 0 -205 0 0 -95z"/>
 <path d="M6710 315 l0 -95 205 0 205 0 0 95 0 95 -205 0 -205 0 0 -95z"/>
 </g>

</svg>